<svg xmlns="http://www.w3.org/2000/svg" width="60" height="60" fill="none">
  <g clip-path="url(#a)">
    <path fill="#FFBC85" fill-rule="evenodd" d="m23.02 17.983-8.582 2.508-1.915 7.595c.332 2.79.855 5.4 2.58 6.863l14.232 11.567 1.722 1.325c2.593 1.994 5.049-.793 3.078-2.853l-.088-.09c.665.56 1.413.718 2.067.612 1.44-.234 2.425-1.759 1.1-3.182 2.59 2.068 4.802-1.227 2.774-3.034 2.26.713 4.725-2.22 2.376-4.71a1.108 1.108 0 0 0-.055-.06l-5.889-8.767-7.898-5.061-5.502-2.713Z" clip-rule="evenodd"/>
    <path fill="#FFE5C1" fill-rule="evenodd" d="M29.12 46.763c2.19-2.334-1.004-5.02-2.77-3.437l-1.892 1.8c-.022.021-.04.04-.063.057-1.588 1.596 1.298 5.234 3.685 2.688l1.04-1.108Z" clip-rule="evenodd"/>
    <path fill="#FFE5C1" fill-rule="evenodd" d="m23.052 40.07-1.998 2.096-.009.01c-1.002 1.065-.306 2.697.88 3.334.733.395 1.653.411 2.471-.327l2.141-.033-.186-1.824.274-.258c2.14-2.035-.95-5.551-3.362-3.22l-.21.222Z" clip-rule="evenodd"/>
    <path fill="#FFE5C1" fill-rule="evenodd" d="m19.483 37.198-1.873 1.989-.263.282c-1.848 1.962 1.462 5.05 3.37 3.048l.329-.34c.027-.03 2.034-.239 2.253-.264l-.036-2.065.641-.672c2.204-2.312-1.24-5.357-3.337-3.127l-1.084 1.15Z" clip-rule="evenodd"/>
    <path fill="#FFE5C1" fill-rule="evenodd" d="m15.102 34.949-.635.688c-1.955 2.123.958 5.508 3.142 3.55l1.794-.277.079-1.712c1.771-2.005-1.317-5.574-3.748-2.935l-.632.686Z" clip-rule="evenodd"/>
    <path fill="#7BACDF" fill-rule="evenodd" d="m17.785 12.025-8.692 8.37-2.473 2.378a2.04 2.04 0 0 0-.057 2.871l3.688 3.846c.213.222.572.23.796.017l1.476-1.421 10.496-10.103 1.303-1.256a.564.564 0 0 0 .017-.798l-3.688-3.846a2.03 2.03 0 0 0-2.866-.058Z" clip-rule="evenodd"/>
    <path fill="#F5A96C" fill-rule="evenodd" d="m34.315 26.575-2.64.603 1.036 1.05 7.994 7.95.054.06c.964 1.02 1.117 2.112.81 3.001 1.58-.603 2.585-2.757.795-4.655l-.055-.06-2.398-2.384-5.596-5.566ZM23.019 17.983 21.338 19.6l5.253 2.592 1.93-1.495-5.502-2.713Z" clip-rule="evenodd"/>
    <path fill="#FFE5C1" fill-rule="evenodd" d="m28.522 20.696-1.93 1.495-1.818 1.405c-4.591 3.555-.783 7.066 1.94 5.861l3.064-1.846 1.897-.433 2.64-.604 5.595 5.566 2.398 2.384c1.509-.565 3.642-2.195 5.944-5.903l-3.5-7.323-8.174-3.915-2.097 1.675c-.344.275-.24.223-.676.209-1.574-.05-3.575.107-4.75 1.015l-.533.414Z" clip-rule="evenodd"/>
    <path fill="#FED1A3" fill-rule="evenodd" d="m28.514 26.39-3.063 1.847c-.835.37-1.774.296-2.54-.088.664 1.278 2.384 1.937 3.804 1.308l3.064-1.846 1.897-.433 2.606-.595c-1.207-1.034-1.423-1.185-3.873-.623l-1.895.43ZM46.347 26.786c-2.05 3.3-3.964 4.954-5.423 5.678-.165.082-.324.15-.477.208l1.862 1.852c1.508-.565 3.64-2.195 5.943-5.903l-1.905-1.835Z" clip-rule="evenodd"/>
    <path fill="#3987D0" fill-rule="evenodd" d="M14.81 14.889a2.03 2.03 0 0 1 2.856.066l3.688 3.845a.567.567 0 0 1-.017.799l1.681-1.616 1.303-1.256a.565.565 0 0 0 .017-.799l-3.688-3.845a2.03 2.03 0 0 0-2.866-.058L14.81 14.89Z" clip-rule="evenodd"/>
    <path fill="#FED1A3" fill-rule="evenodd" d="M13.824 37.261c.02 1.797 2.116 3.424 3.786 1.926l1.175-1.245.698-.744c.73-.828.632-1.92.098-2.734a2.056 2.056 0 0 1-.525 1.368l-1.243 1.32-.627.669c-1.218 1.089-2.661.521-3.362-.56ZM16.889 41.337c.438 1.47 2.483 2.593 3.827 1.18l.328-.34a.036.036 0 0 1 .009-.011l1.998-2.096c.071-.08.14-.154.211-.222l.64-.672c1.189-1.245.737-2.705-.262-3.437.18.672.035 1.448-.638 2.153l-.64.672c-.072.069-.14.143-.211.22v.002l-1.999 2.096c-.003.003-.005.006-.011.008l-.326.343c-.892.938-2.091.76-2.926.105ZM24.459 45.126l1.46-1.386.432-.414.273-.258c1.14-1.083.797-2.586-.14-3.404.2.716.053 1.525-.637 2.181l-.271.258-.772.732-1.123 1.07-.063.055c-.818.738-1.738.721-2.472.329-.18-.099-.35-.22-.503-.36.18.65.665 1.252 1.28 1.58.735.396 1.654.412 2.473-.326l.063-.057ZM29.121 46.763c1.095-1.168.843-2.422.099-3.187-.017.518-.236 1.075-.74 1.61l-1.04 1.11c-1.278 1.361-2.7.953-3.499.034.011 1.665 2.234 3.574 4.14 1.541l1.04-1.108Z" clip-rule="evenodd"/>
    <path fill="#F5A96C" d="M39.986 40.019a.722.722 0 0 1-.493-.194l-2.919-2.719a.725.725 0 0 1 .988-1.061l2.918 2.718a.725.725 0 0 1-.494 1.256ZM37.214 43.053a.721.721 0 0 1-.494-.195l-2.92-2.72a.725.725 0 0 1 .986-1.062l2.921 2.721a.725.725 0 0 1-.493 1.256ZM34.142 45.719a.722.722 0 0 1-.493-.194l-1.486-1.383a.725.725 0 0 1 .986-1.062l1.487 1.383a.725.725 0 0 1-.494 1.256Z"/>
    <path fill="#FE636E" fill-rule="evenodd" d="m36.578 17.383 9.768 9.403 1.905 1.835.701.675a.567.567 0 0 0 .797-.017l1.925-2.008 1.763-1.838a2.04 2.04 0 0 0-.058-2.872l-1.705-1.64-9.459-9.107a2.03 2.03 0 0 0-2.866.057l-3.688 3.846a.565.565 0 0 0 .017.798l.9.867Z" clip-rule="evenodd"/>
    <path fill="#FB2A39" fill-rule="evenodd" d="m49.24 24.926-1.924 2.01a.564.564 0 0 1-.797.014l1.733 1.67.701.675a.567.567 0 0 0 .797-.016l1.925-2.008 1.763-1.838a2.04 2.04 0 0 0-.058-2.872l-2.157-2.076.183.178-.451-.436c.794.773.818 2.06.05 2.86l-1.764 1.839Z" clip-rule="evenodd"/>
  </g>
  <defs>
    <clipPath id="a">
      <path fill="#fff" d="M6 6h48v48H6z"/>
    </clipPath>
  </defs>
</svg>
