<svg xmlns="http://www.w3.org/2000/svg" width="60" height="60" fill="none">
  <g clip-path="url(#a)">
    <path fill="#FCC16D" d="M24.916 51.334c10.04 0 18.18-8.14 18.18-18.18 0-10.042-8.14-18.182-18.18-18.182-10.042 0-18.182 8.14-18.182 18.181s8.14 18.181 18.181 18.181Z"/>
    <path fill="#FCB44D" d="M43.097 33.153c0 10.041-8.14 18.181-18.182 18.181-.481 0-.959-.019-1.43-.055 9.371-.73 16.749-8.567 16.749-18.126 0-9.558-7.378-17.395-16.75-18.125.472-.037.95-.056 1.431-.056 10.041 0 18.182 8.14 18.182 18.181Z"/>
    <path fill="#FEE7C9" d="M24.915 48.188c8.304 0 15.035-6.731 15.035-15.035 0-8.303-6.731-15.034-15.035-15.034-8.303 0-15.034 6.731-15.034 15.034 0 8.304 6.731 15.035 15.034 15.035Z"/>
    <path fill="#FFD496" d="M39.95 33.153c0 8.303-6.73 15.035-15.034 15.035-.5 0-.995-.025-1.482-.073 7.606-.745 13.55-7.159 13.55-14.962 0-7.802-5.944-14.217-13.55-14.961a15.1 15.1 0 0 1 1.482-.073c8.303 0 15.035 6.731 15.035 15.034Z"/>
    <path fill="#FB9927" d="M33.358 41.6c4.666-4.665 4.666-12.23 0-16.896-4.665-4.666-12.23-4.666-16.896 0s-4.666 12.23 0 16.896 12.23 4.666 16.896 0Z"/>
    <path fill="#F98824" d="M36.866 33.154c0 6.588-5.36 11.949-11.95 11.949a11.95 11.95 0 0 1-1.49-.093c5.887-.736 10.458-5.773 10.458-11.856 0-6.085-4.57-11.121-10.458-11.856a11.95 11.95 0 0 1 1.49-.093c6.59 0 11.95 5.36 11.95 11.949Z"/>
    <path fill="#FFD496" d="M29.403 32.97a.49.49 0 0 1-.089-.69c.452-.58.722-1.308.722-2.098a3.427 3.427 0 0 0-2.435-3.276.49.49 0 0 1-.347-.468v-.961a.491.491 0 0 0-.491-.491h-.491a.491.491 0 0 0-.491.49v.793c0 .271-.22.491-.491.491h-.813a.491.491 0 0 1-.491-.49v-.793a.491.491 0 0 0-.491-.491h-.491a.491.491 0 0 0-.491.49v.793c0 .271-.22.491-.491.491h-1.22a.491.491 0 0 0-.491.491v.491c0 .271.22.491.49.491h.791c.271 0 .491.22.491.491v9.43c0 .27-.22.49-.49.49h-.791a.491.491 0 0 0-.491.492v.49c0 .272.22.492.49.492h1.22c.272 0 .492.22.492.49v.793c0 .271.22.491.49.491h.492c.271 0 .491-.22.491-.491v-.792c0-.272.22-.491.491-.491h.813c.271 0 .49.22.49.49v.793c0 .271.22.491.492.491h.49c.272 0 .492-.22.492-.491v-.863c0-.24.173-.442.408-.484a3.999 3.999 0 0 0 3.29-3.93 3.987 3.987 0 0 0-1.55-3.154Zm-2.79-4.737c1.1 0 1.99.916 1.948 2.024-.04 1.055-.94 1.874-1.995 1.874h-2.518a.491.491 0 0 1-.492-.49v-2.917c0-.27.22-.49.491-.49h2.567Zm.288 10.412h-2.854a.491.491 0 0 1-.49-.492v-4.057c0-.272.22-.492.49-.492h2.911a2.523 2.523 0 0 1 2.52 2.477c.024 1.41-1.167 2.564-2.577 2.564Z"/>
    <path fill="#FCB44D" d="m41.842 22.15 11.06-2.934-6.55-2.1a.491.491 0 0 1-.297-.67l3.721-8.153-8.152 3.721a.491.491 0 0 1-.671-.297l-2.1-6.55-2.934 11.06a.629.629 0 0 0 .164.606l5.154 5.154c.158.158.389.22.605.163Z"/>
    <path fill="#FB9927" d="m52.901 19.216-11.06 2.933a.628.628 0 0 1-.605-.162l-1.978-1.978c.158.158.389.22.605.162l9.143-2.203 3.895 1.248Z"/>
    <path fill="#72F4C3" d="M49.775 10.273a1.98 1.98 0 1 0 0-3.96 1.98 1.98 0 0 0 0 3.96Z"/>
    <path fill="#27E19D" d="M51.755 8.294a1.98 1.98 0 0 1-3.125 1.614 1.641 1.641 0 0 0-.001-3.229 1.98 1.98 0 0 1 3.126 1.614Z"/>
    <path fill="#72F4C3" d="M52.95 20.712a1.544 1.544 0 1 0 0-3.088 1.544 1.544 0 0 0 0 3.088Z"/>
    <path fill="#27E19D" d="M54.495 19.168a1.544 1.544 0 0 1-2.438 1.26 1.28 1.28 0 0 0 0-2.519 1.544 1.544 0 0 1 2.438 1.26Z"/>
    <path fill="#72F4C3" d="M38.9 6.851a1.732 1.732 0 1 0 0-3.465 1.732 1.732 0 0 0 0 3.465Z"/>
    <path fill="#27E19D" d="M40.634 5.12a1.732 1.732 0 0 1-2.735 1.412 1.436 1.436 0 0 0 0-2.825 1.733 1.733 0 0 1 2.735 1.412Z"/>
    <path fill="#FEE7C9" d="m40.354 24.084-6.602-6.601a.314.314 0 0 1 0-.445l1.561-1.56a.314.314 0 0 1 .445 0l6.601 6.6a.314.314 0 0 1 0 .445l-1.56 1.561a.314.314 0 0 1-.445 0Z"/>
    <path fill="#FFD496" d="m42.36 22.523-1.561 1.56a.314.314 0 0 1-.445 0l-1.922-1.922a.315.315 0 0 0 .444 0l1.561-1.56a.315.315 0 0 0 0-.445l1.923 1.922a.314.314 0 0 1 0 .445Z"/>
    <path fill="#64B9FC" d="M39.95 52.196a8.544 8.544 0 1 0 0-17.089 8.544 8.544 0 0 0 0 17.09Z"/>
    <path fill="#31A7FB" d="M48.496 43.652a8.544 8.544 0 0 1-10.318 8.36 8.547 8.547 0 0 0 0-16.72 8.545 8.545 0 0 1 10.318 8.36Z"/>
    <path fill="#B0DCFF" d="M39.49 42.57a.765.765 0 0 0-1.518-.085l-.01.065h-.878a.765.765 0 0 0-1.518-.101l-.017.1h-.102a.765.765 0 0 0-.154 1.514l-.146.865h-.066a.765.765 0 0 0-.17 1.51.764.764 0 0 0 1.517.085l.012-.066h.877a.765.765 0 0 0 1.518.101l.017-.1h.102a.765.765 0 0 0 .154-1.514l.146-.865h.066a.765.765 0 0 0 .17-1.51Zm-1.93 2.358h-.862l.143-.849h.862l-.144.85ZM43.327 47a.247.247 0 0 1-.169-.062.247.247 0 0 1-.062-.169v-3.908l-1.11.853a.244.244 0 0 1-.178.035.277.277 0 0 1-.151-.107l-.649-.843a.301.301 0 0 1-.035-.178.215.215 0 0 1 .107-.151l2.096-1.626a.209.209 0 0 1 .088-.044.288.288 0 0 1 .107-.018h1.395a.23.23 0 0 1 .168.071.203.203 0 0 1 .072.16v5.756a.23.23 0 0 1-.072.169.247.247 0 0 1-.168.062h-1.44Z"/>
  </g>
  <defs>
    <clipPath id="a">
      <path fill="#fff" d="M6.209 3.386h48.81v48.81H6.209z"/>
    </clipPath>
  </defs>
</svg>
