<svg xmlns="http://www.w3.org/2000/svg" width="60" height="60" fill="none">
  <g clip-path="url(#a)">
    <path fill="#2196F3" d="M21.769 21.681a8.551 8.551 0 0 0 2.489-6.108c-.03-4.732-3.895-8.56-8.628-8.56h-.057A8.58 8.58 0 0 0 9.49 9.575 8.554 8.554 0 0 0 7 15.683c.03 4.732 3.896 8.56 8.627 8.56h.057a8.604 8.604 0 0 0 3.964-.987l2.712 2.264.92-1.102-2.367-1.978c.299-.232.586-.485.856-.759Zm-2.541-1.742H16.35l-.004 1.44-1.437-.005.004-1.435h-2.153a.718.718 0 0 1-.561-1.167l4.814-6.018h-4.972v-1.437h2.87l.004-1.44 1.438.005-.005 1.435h2.16a.718.718 0 0 1 .562 1.167l-4.815 6.018h4.972v1.437Z"/>
    <path fill="#fff" d="M16.353 25.688h-1.437v8.622h1.437v-3.593h2.874V29.28h-2.874v-3.592ZM20.664 29.28h1.437v1.438h-1.437V29.28ZM43.66 25.688v3.592h-2.875v1.438h2.874v3.592h1.438v-8.622h-1.438ZM37.91 29.28h1.437v1.438H37.91V29.28ZM25.695 15.628h3.593v2.874h1.437v-2.874h3.593V14.19h-8.623v1.437ZM29.287 19.94h1.437v1.436h-1.437V19.94ZM30.725 41.496h-1.437v2.874h-3.593v1.437h8.623V44.37h-3.593v-2.874ZM29.287 38.622h1.437v1.437h-1.437v-1.437ZM30.007 24.335l-4.312 2.071 4.312 2.071 4.311-2.07-4.311-2.072Z"/>
    <path fill="#2196F3" d="m44.056 18.427-.454-.227.775 1.162.775-1.163-.454.227a.719.719 0 0 1-.642 0ZM46.134 13.946l-1.757-2.197-1.758 2.197 1.758.879 1.757-.88Z"/>
    <path fill="#2196F3" d="M44.372 7.013h-.056a8.583 8.583 0 0 0-6.085 2.561 8.554 8.554 0 0 0-2.489 6.109 8.6 8.6 0 0 0 3.263 6.687l-2.294 2.065.961 1.067 2.57-2.313a8.584 8.584 0 0 0 4.128 1.053h.056a8.582 8.582 0 0 0 6.085-2.562A8.551 8.551 0 0 0 53 15.572c-.03-4.73-3.895-8.56-8.628-8.56Zm-3.43 6.729 2.874-3.593c.274-.341.85-.341 1.123 0l2.874 3.593a.72.72 0 0 1-.24 1.091l-2.874 1.437a.71.71 0 0 1-.643.001l-2.874-1.437a.722.722 0 0 1-.24-1.092Zm6.907 3.003-2.874 4.312a.72.72 0 0 1-1.196 0l-2.874-4.312a.718.718 0 0 1 .92-1.04l2.552 1.275 2.553-1.276a.718.718 0 0 1 .92 1.041ZM35.742 44.425a8.56 8.56 0 0 0 .495 2.82h4.547v-6.468a.72.72 0 0 1 1.387-.267l2.206 5.519 2.207-5.518a.718.718 0 0 1 1.386.266v6.467h4.54a8.596 8.596 0 0 0 .49-2.93c-.03-4.73-3.895-8.56-8.628-8.56h-.056a8.588 8.588 0 0 0-4.242 1.141L37.7 34.521l-1.016 1.016 2.19 2.191c-.222.184-.437.38-.643.589a8.554 8.554 0 0 0-2.489 6.108Z"/>
    <path fill="#2196F3" d="M47.252 48.681a.718.718 0 0 1-.719-.718v-3.455l-1.488 3.721a.72.72 0 0 1-1.335.001l-1.488-3.722v3.455a.718.718 0 0 1-.719.718h-4.6a8.636 8.636 0 0 0 7.467 4.305h.056a8.58 8.58 0 0 0 6.085-2.562 8.68 8.68 0 0 0 1.334-1.742h-4.593ZM17.79 45.089h-4.311v1.437h4.31a.72.72 0 0 0 0-1.437ZM17.79 42.214h-4.311v1.438h4.31a.72.72 0 0 0 0-1.438Z"/>
    <path fill="#2196F3" d="m21.058 37.679 2.717-2.294-.954-1.075-2.99 2.537a8.581 8.581 0 0 0-4.2-1.092h-.058a8.583 8.583 0 0 0-6.084 2.561A8.555 8.555 0 0 0 7 44.425c.03 4.732 3.896 8.56 8.627 8.56h.057a8.582 8.582 0 0 0 6.085-2.561 8.55 8.55 0 0 0 2.489-6.108 8.597 8.597 0 0 0-3.2-6.637Zm-1.112 8.128a2.158 2.158 0 0 1-2.155 2.156h-.719V49.4h-1.437v-1.437h-.719V49.4H13.48v-1.437h-2.155v-1.437h.718v-4.312h-.718v-1.437h2.155V39.34h1.438v1.437h.718V39.34h1.437v1.437h.719c1.188 0 2.155.968 2.155 2.156 0 .552-.208 1.056-.55 1.437.342.382.55.886.55 1.437Z"/>
    <path fill="#fff" d="M23.54 26.765v6.827a.72.72 0 0 0 .397.643l5.35 2.675v-7.185l-5.748-2.96ZM36.473 26.765v6.827a.719.719 0 0 1-.397.643l-5.351 2.675v-7.185l5.748-2.96Z"/>
  </g>
  <defs>
    <clipPath id="a">
      <path fill="#fff" d="M7 7h46v46H7z"/>
    </clipPath>
  </defs>
</svg>
