<svg xmlns="http://www.w3.org/2000/svg" width="60" height="60" fill="none">
  <path fill="#FB9927" d="M10.406 37a.463.463 0 0 1-.34-.14.478.478 0 0 1-.1-.46.45.45 0 0 1 .08-.16l3.28-4.6-2.96-4.28a1.31 1.31 0 0 1-.08-.14.66.66 0 0 1-.02-.16.44.44 0 0 1 .14-.32.44.44 0 0 1 .32-.14h3.06c.187 0 .327.047.42.14a.96.96 0 0 1 .2.22l1.5 2.18 1.5-2.18c.053-.067.12-.14.2-.22.093-.093.233-.14.42-.14h2.92a.44.44 0 0 1 .32.14.42.42 0 0 1 .14.3.745.745 0 0 1-.02.18.297.297 0 0 1-.08.14l-3.02 4.28 3.34 4.6a.45.45 0 0 1 .08.16.44.44 0 0 1-.12.46.44.44 0 0 1-.32.14h-3.2c-.173 0-.3-.04-.38-.12a2.715 2.715 0 0 1-.2-.22l-1.66-2.32-1.72 2.32a.96.96 0 0 1-.2.22c-.08.08-.207.12-.38.12h-3.12Zm12.808 0a.558.558 0 0 1-.38-.14.558.558 0 0 1-.14-.38v-1.74c0-.093.02-.247.06-.46.053-.213.2-.407.44-.58l1.16-1.1c1.226-.92 2.246-1.693 3.06-2.32.813-.627 1.42-1.173 1.82-1.64.413-.467.62-.9.62-1.3 0-.32-.08-.593-.24-.82-.147-.24-.447-.36-.9-.36-.334 0-.6.073-.8.22a1.49 1.49 0 0 0-.46.54 4.79 4.79 0 0 0-.22.6c-.054.187-.147.313-.28.38-.134.053-.287.08-.46.08h-3.12a.433.433 0 0 1-.32-.12.407.407 0 0 1-.12-.3c.013-.707.16-1.347.44-1.92.293-.587.693-1.1 1.2-1.54a5.15 5.15 0 0 1 1.8-1c.706-.24 1.48-.36 2.32-.36 1.173 0 2.18.18 3.02.54.84.36 1.486.867 1.94 1.52.453.653.68 1.433.68 2.34 0 .693-.16 1.34-.48 1.94-.32.587-.774 1.153-1.36 1.7a20.992 20.992 0 0 1-2.08 1.68l-.98.96h4.68c.146 0 .266.053.36.16.106.107.16.233.16.38v2.52a.519.519 0 0 1-.16.38.487.487 0 0 1-.36.14h-10.9Zm19.235.2c-.987 0-1.847-.133-2.58-.4-.734-.267-1.347-.633-1.84-1.1a4.984 4.984 0 0 1-1.12-1.64 6.191 6.191 0 0 1-.46-2.06c-.027-.36-.047-.787-.06-1.28v-1.48c.013-.507.033-.947.06-1.32a5.82 5.82 0 0 1 .46-2.02 4.746 4.746 0 0 1 1.18-1.62 5.246 5.246 0 0 1 1.84-1.08c.72-.267 1.56-.4 2.52-.4.946 0 1.78.133 2.5.4.733.253 1.346.613 1.84 1.08.506.453.893.993 1.16 1.62.28.613.446 1.287.5 2.02.026.373.04.813.04 1.32v1.48c0 .493-.014.92-.04 1.28a6.56 6.56 0 0 1-.48 2.06 4.613 4.613 0 0 1-1.12 1.64c-.494.467-1.107.833-1.84 1.1-.734.267-1.587.4-2.56.4Zm0-3.42c.533 0 .92-.173 1.16-.52.24-.347.366-.8.38-1.36.026-.387.04-.807.04-1.26v-1.36c0-.467-.014-.88-.04-1.24-.014-.533-.14-.973-.38-1.32-.227-.36-.614-.547-1.16-.56-.547.013-.934.2-1.16.56-.227.347-.354.787-.38 1.32-.014.36-.027.773-.04 1.24v1.36c.013.453.026.873.04 1.26.026.56.153 1.013.38 1.36.24.347.626.52 1.16.52Z"/>
</svg>
