<svg xmlns="http://www.w3.org/2000/svg" fill="none" viewBox="0 0 60 60">
  <path fill="url(#a)" fill-rule="evenodd" d="M15.529 41.04a4.105 4.105 0 0 1-5.068-1.75 4.105 4.105 0 0 1 1.019-5.264l4.049 7.013Zm-1.816-21.976-2.039-.058-3.037-3.037 2.998.085-.085-2.998 3.037 3.037.058 2.04 4.734 4.733c-.39.218-.714.542-.932.933l-4.734-4.735Zm6.835 3.541c-.413 0-.8.106-1.138.292l1.604 1.604a.66.66 0 1 1-.932.932l-1.604-1.604a2.362 2.362 0 1 0 2.07-1.224Zm0-5.815a8.139 8.139 0 0 0-4.213 1.167l2.177 2.178a5.243 5.243 0 1 1-2.797 2.797l-2.177-2.178a8.178 8.178 0 1 0 7.01-3.964Zm25.425 2.756a.657.657 0 1 1-.659-1.138l4.246-2.452a.658.658 0 0 1 .66 1.139l-4.247 2.451Zm-7.147-5.227a.657.657 0 0 1-1.313 0v-4.56a.657.657 0 0 1 1.313 0v4.56Zm4.274 1.747 2.405-4.167a.656.656 0 1 0-1.138-.654l-2.405 4.167a.656.656 0 1 0 1.138.654Zm2.514 12.282a.656.656 0 0 1 .654-1.138l3.949 2.28a.656.656 0 0 1-.654 1.138l-3.949-2.28Zm1.278-4.397a.66.66 0 1 1 0-1.318h4.811a.66.66 0 1 1 0 1.318h-4.812Zm-3.001 13.07c-.91.526-2.085.212-2.61-.699l-12.84-22.24a1.916 1.916 0 0 1 .7-2.609 1.916 1.916 0 0 1 2.609.7l12.84 22.24c.525.91.21 2.083-.7 2.609Zm-31.52-7.225a2.37 2.37 0 0 0-.246 2.71l5.042 8.735a2.368 2.368 0 0 0 3.228.865l5.305-3.063-2.813-4.87c-.748.189-1.532.29-2.34.29a9.492 9.492 0 0 1-8.177-4.667Zm14.571 8.77-2.78-4.816a9.499 9.499 0 0 0 2.321-16.195l1.496-1.635 11.48 19.884-12.517 2.762Zm14.71-11.879a5.109 5.109 0 0 0-4.682-8.109l4.682 8.11ZM21.806 42.814l4.167-2.406 5.87 5.87a1.142 1.142 0 0 1 0 1.612l-1.675 1.675a1.142 1.142 0 0 1-1.611 0l-6.751-6.751Z" clip-rule="evenodd"/>
  <defs>
    <linearGradient id="a" x1="9.616" x2="49.614" y1="37.824" y2="14.731" gradientUnits="userSpaceOnUse">
      <stop stop-color="#3BFF7E"/>
      <stop offset="1" stop-color="#26BAE3"/>
    </linearGradient>
  </defs>
</svg>
