<svg xmlns="http://www.w3.org/2000/svg" width="60" height="60" fill="none">
  <g clip-path="url(#a)">
    <path fill="#fff" d="m36.403 42.448-8.741 3.757v-.376c-1.686.426-3.553.673-5.322.752-8.22-.08-14.744-4.332-14.82-9.393v-1.88c2.7 3.882 8.196 6.482 14.82 6.388 2.242.094 4.535-.256 6.461-.751l.76-1.88c-2.284.675-4.779 1.144-7.22 1.127-8.22.017-14.745-4.236-14.82-9.39v-1.504c2.699 3.588 8.183 6.188 14.82 6.012 2.986.177 5.905-.444 8.36-1.504l.381-1.878c-2.399 1.25-5.508 1.977-8.741 1.878-8.22.099-14.745-4.154-14.82-9.391V22.91c2.699 3.671 8.195 6.272 14.82 6.387 3.765-.115 7.335-1.099 10.261-2.63l.38-2.254c-2.655 1.945-6.533 3.2-10.641 3.38-8.22-.18-14.744-4.434-14.82-9.767.075-5.071 6.6-9.325 14.82-9.392 4.9.068 9.451 1.767 12.161 4.509l.264.434 1.916.008-.28-.442c-2.695-3.62-8.085-6.01-14.061-6.01C13.245 7.133 6 12.088 6 18.027v19.536c.32 5.798 7.4 10.519 16.341 10.519 5.905 0 11.213-2.297 14.062-5.635Z"/>
    <path fill="#FABF2C" d="m32.846 55.667 3.068-12.892-8.82 3.792 5.37-22.37H22.107L24.791 13.2h32.985l-2.685 10.996H44.353l-2.302 6.067 11.89-4.93-21.095 30.334Zm5.37-15.547-1.534 7.584 12.656-18.958-10.356 4.55 4.603-10.616H53.94l1.918-7.963H25.942l-1.918 7.963H34.38l-4.987 21.233 8.822-3.79.001-.003Z"/>
  </g>
  <defs>
    <clipPath id="a">
      <path fill="#fff" d="M6 7.133h52v48.533H6z"/>
    </clipPath>
  </defs>
</svg>
