<svg xmlns="http://www.w3.org/2000/svg" width="60" height="60" fill="none">
  <g clip-path="url(#a)">
    <path fill="#FF004F" d="M39.631 23.923a18.413 18.413 0 0 0 10.741 3.436v-7.703c-.758 0-1.514-.08-2.256-.236v6.063a18.415 18.415 0 0 1-10.74-3.435v15.72c0 7.864-6.379 14.239-14.246 14.239-2.936 0-5.664-.887-7.93-2.409a14.206 14.206 0 0 0 10.185 4.284c7.868 0 14.247-6.374 14.247-14.239v-15.72Zm2.783-7.771a10.733 10.733 0 0 1-2.783-6.286v-.99h-2.137a10.785 10.785 0 0 0 4.92 7.276ZM20.175 43.564a6.515 6.515 0 0 1 5.187-10.456c.671 0 1.338.102 1.978.305v-7.875a14.373 14.373 0 0 0-2.255-.13v6.13a6.525 6.525 0 0 0-1.978-.305 6.514 6.514 0 0 0-2.932 12.33Z"/>
    <path fill="#000" d="M37.375 22.048a18.416 18.416 0 0 0 10.741 3.435v-6.064a10.782 10.782 0 0 1-5.703-3.267 10.785 10.785 0 0 1-4.92-7.277H31.88v30.768a6.516 6.516 0 0 1-11.704 3.92 6.512 6.512 0 0 1 2.931-12.33c.69 0 1.355.107 1.978.305v-6.13c-7.73.16-13.945 6.472-13.945 14.235 0 3.876 1.548 7.389 4.06 9.956a14.185 14.185 0 0 0 7.93 2.408c7.868 0 14.247-6.375 14.247-14.239v-15.72Z"/>
    <path fill="#00F2EA" d="M48.116 19.42v-1.64a10.743 10.743 0 0 1-5.703-1.628 10.773 10.773 0 0 0 5.703 3.268M37.493 8.875a11.01 11.01 0 0 1-.118-.884V7h-7.753v30.768a6.515 6.515 0 0 1-6.516 6.49 6.49 6.49 0 0 1-2.932-.694 6.508 6.508 0 0 0 5.188 2.57 6.516 6.516 0 0 0 6.516-6.49V8.874h5.615ZM25.084 25.408v-1.745c-.648-.09-1.3-.133-1.954-.133-7.869 0-14.247 6.375-14.247 14.238 0 4.93 2.507 9.275 6.316 11.83a14.186 14.186 0 0 1-4.06-9.955c0-7.763 6.216-14.076 13.945-14.235Z"/>
  </g>
  <defs>
    <clipPath id="a">
      <path fill="#fff" d="M8.883 7h41.49v47H8.883z"/>
    </clipPath>
  </defs>
</svg>
