<svg xmlns="http://www.w3.org/2000/svg" fill="none" viewBox="0 0 70 70">
  <g clip-path="url(#a)">
    <path fill="#08C" d="M35 63c15.464 0 28-12.536 28-28S50.464 7 35 7 7 19.536 7 35s12.536 28 28 28Z"/>
    <path fill="#fff" fill-rule="evenodd" d="M27.2 25.5h15.7c.6 0 1.1.1 1.7.4.7.3 1.1.8 1.3 1.2 0 0 0 .1.1.1.3.5.5 1.1.5 1.8 0 .6-.1 1.2-.5 1.8l-9.9 17c-.2.4-.6.6-1.1.6-.4 0-.8-.2-1.1-.6l-9.7-17c-.2-.4-.6-.9-.6-1.7-.1-.7.1-1.3.4-1.9.3-.6.8-1.1 1.5-1.3.6-.4 1.3-.4 1.7-.4Zm6.6 2.4h-6.6c-.4 0-.6 0-.7.1-.2.1-.3.2-.4.4-.1.1-.1.3-.1.5 0 .1.1.2.3.6l7.5 13V27.9Zm2.4 0v14.7l7.6-13.1c.1-.2.1-.4.1-.6 0-.2 0-.4-.1-.5-.1-.1-.1-.2-.2-.2l-.1-.1c-.2-.1-.4-.1-.7-.1h-6.6v-.1Z" clip-rule="evenodd"/>
  </g>
  <defs>
    <clipPath id="a">
      <path fill="#fff" d="M7 7h56v56H7z"/>
    </clipPath>
  </defs>
</svg>
