<svg xmlns="http://www.w3.org/2000/svg" data-name="Layer 1" viewBox="0 0 77.1 76">
  <path d="M4.61 3.13v76h77.1v-76Zm71.6 70.6h-66.1V8.53h66.1Z" style="fill:#0086ff" transform="translate(-4.61 -3.13)"/>
  <path d="M40 28h5a3.08 3.08 0 0 1 1 .1l.3-7.6Z" style="fill:#1390cf" transform="translate(-4.61 -3.13)"/>
  <path d="m48.91 22.13-2.6-1.5v.3l-.2 7.3a.76.76 0 0 1 .4.1l.9-.8 1.6-3.2.4-1.3Z" style="fill:#33c0dd" transform="translate(-4.61 -3.13)"/>
  <path d="M50.31 20.53a5.7 5.7 0 0 0-1.3.1v1.7l.2.3 2.1.3H54l2.6-.1a9.4 9.4 0 0 0-6.29-2.3Z" style="fill:#0099d6" transform="translate(-4.61 -3.13)"/>
  <path d="m56.51 22.63-7.5-.4L46 28v.1c.1 0 .3.1.4.1l3.6-.8 3.8-2.4 3.4-1.8Z" style="fill:#96d8ed" transform="translate(-4.61 -3.13)"/>
  <path d="m56.71 22.73-.1-.1-10.5 5.5a4.59 4.59 0 0 1 3.5 4.4h.2l3.1-2 3-3.9 1-3.5Z" style="fill:#1ba0da" transform="translate(-4.61 -3.13)"/>
  <path d="m56.51 22.63-7 9.9 5 1 4.3-1.7 1.2-.4c0-.4.1-.8.1-1.3a9.38 9.38 0 0 0-3.6-7.5Z" style="fill:#1190cf" transform="translate(-4.61 -3.13)"/>
  <path d="m60.21 30-10.6 2.5v.8l.7 2 2.8 3.5 1.4.3a9.65 9.65 0 0 0 5.9-8.9c-.2-.07-.2-.2-.2-.2Z" style="fill:#056db5" transform="translate(-4.61 -3.13)"/>
  <path d="M49 34.53a4.52 4.52 0 0 1-3.8 2.5h-5.7l6.4 7.1h.3l.5-.5 1.9-5.1.5-2.9Z" style="fill:#1c3a69" transform="translate(-4.61 -3.13)"/>
  <path d="M49.51 32.43a4.55 4.55 0 0 1-.8 2.7L46 44.23h.7a3.89 3.89 0 0 1 1.5.2h.8l2.8-2.3 1.8-1.7.9-1.2Z" style="fill:#005893" transform="translate(-4.61 -3.13)"/>
  <path d="m55.71 40.63-.8-1.4c-.1 0-.3-.1-.4-.1L46 44.23h.6a5.4 5.4 0 0 1 5.5 5.4v.5l2.3-1.3L56 46Z" style="fill:#056db5" transform="translate(-4.61 -3.13)"/>
  <path d="m54.41 39.13-2.3 10.4v.6l3.9 1.3 7.4.1v-.8a12.12 12.12 0 0 0-9-11.6Z" style="fill:#005d9d" transform="translate(-4.61 -3.13)"/>
  <path d="m63.31 49.73-11.2-.1a5.66 5.66 0 0 1-.3 1.8l.3 2.2 1.2 3 2.6 3.7 1.5.7a11.94 11.94 0 0 0 6-10.4 2.77 2.77 0 0 1-.1-.9Z" style="fill:#1c3a69" transform="translate(-4.61 -3.13)"/>
  <path d="M52.11 49.53a5.46 5.46 0 0 1-5.5 5.4h-.8l.2 2.8 7.1 2.7 3.1 1a8.26 8.26 0 0 0 1.3-.7Z" style="fill:#134f7e" transform="translate(-4.61 -3.13)"/>
  <path d="M46.31 55h-.8l-1.2 5.5-.5 2h7.4a12.84 12.84 0 0 0 6.4-1.8Z" style="fill:#1c3a69" transform="translate(-4.61 -3.13)"/>
  <path d="M46.31 55h-7.4l-.1.1.8 2.3 2.8 4.4 1.3.8h1.6Z" style="fill:#134f7e" transform="translate(-4.61 -3.13)"/>
  <path d="m38.91 55-.5.3v.1L37 58.63l-.4.7v3.3h8.6Z" style="fill:#056db5" transform="translate(-4.61 -3.13)"/>
  <path d="M36.61 56.53v6l2.3-7.4Z" style="fill:#1d4d82" transform="translate(-4.61 -3.13)"/>
  <path d="m25.41 20.43-4.2 4.1 6.6.1Z" style="fill:#4da2d3" transform="translate(-4.61 -3.13)"/>
  <path d="m29.91 20.43-1.3 3.8 5.3-.5Z" style="fill:#2d68b1" transform="translate(-4.61 -3.13)"/>
  <path d="m21.11 59 3.6 3.6 2.2-3.7Z" style="fill:#50a2d2" transform="translate(-4.61 -3.13)"/>
  <path d="M43.51 15.93v3.9l3.2-3.9Z" style="fill:#6aacd1" transform="translate(-4.61 -3.13)"/>
  <path d="m30.61 16.33 5.1 2.9.1-2.7Z" style="fill:#72cde6" transform="translate(-4.61 -3.13)"/>
  <path d="m44.31 63.13-.1 3.7h3.6Z" style="fill:#42467f" transform="translate(-4.61 -3.13)"/>
  <path d="m46.31 64.13 3.5 3.7v-3.7Z" style="fill:#1c3a69" transform="translate(-4.61 -3.13)"/>
  <path d="m30.31 63.43-.3 3.4 4.8.2Z" style="fill:#98cbe6" transform="translate(-4.61 -3.13)"/>
  <path d="m29.61 51.33.7 6.7 5.8-4.4Z" style="fill:#056db5" transform="translate(-4.61 -3.13)"/>
  <path d="m25.81 55.53 2 3.7.8-3.7Z" style="fill:#54a4d3" transform="translate(-4.61 -3.13)"/>
  <path d="m39.51 48.23-4.8 2.1 4.9 2.3Z" style="fill:#0062a7" transform="translate(-4.61 -3.13)"/>
  <path d="m31.91 47.73-1.6 2.5 4.4-.7Z" style="fill:#5cabd8" transform="translate(-4.61 -3.13)"/>
  <path d="m26.41 45.83.1 3h2.3Z" style="fill:#1278b9" transform="translate(-4.61 -3.13)"/>
  <path d="m39.21 44-1.4 3.9 3.5-2Z" style="fill:#53a5d4" transform="translate(-4.61 -3.13)"/>
  <path d="m32.51 40 2 6.8 4.1-3.7Z" style="fill:#0678bd" transform="translate(-4.61 -3.13)"/>
  <path d="m27.31 43.93 2.3 1.3 1.6-2.6Z" style="fill:#98cbe6" transform="translate(-4.61 -3.13)"/>
  <path d="M39.71 39v3.3l3 .1Z" style="fill:#1279bb" transform="translate(-4.61 -3.13)"/>
  <path d="m30.51 37.43-1.1 2.5 2-.5Z" style="fill:#54a4d3" transform="translate(-4.61 -3.13)"/>
  <path d="m38.51 37.43-5.8-1.3 5.9 5.2Z" style="fill:#4ba1d3" transform="translate(-4.61 -3.13)"/>
  <path d="m25.31 36 1.1 1.7 1.5-.8Z" style="fill:#4da2d3" transform="translate(-4.61 -3.13)"/>
  <path d="m28.81 32.53.2 4.4 1.9-1.3Z" style="fill:#92c7e6" transform="translate(-4.61 -3.13)"/>
  <path d="m31.31 32.73 7.4 3.3 1.4-6.4Z" style="fill:#21c1e4" transform="translate(-4.61 -3.13)"/>
  <path d="m26.11 32 .8.7v-2.1Z" style="fill:#92c6e4" transform="translate(-4.61 -3.13)"/>
  <path d="m27.71 26.53-1 1.1 1.9 1Z" style="fill:#4ba2d3" transform="translate(-4.61 -3.13)"/>
  <path d="m30.81 24.63 1.7 6 3.6-3.8Z" style="fill:#94d7ec" transform="translate(-4.61 -3.13)"/>
  <path d="m35.81 57.23-6.1 4.4 6.1 4.9Z" style="fill:#056db5" transform="translate(-4.61 -3.13)"/>
  <path d="m28.21 62.43-1.8 1.3h3.5Z" style="fill:#2763a1" transform="translate(-4.61 -3.13)"/>
  <path d="m28.21 16 .1 3 7.1 1.1Z" style="fill:#38c3e3" transform="translate(-4.61 -3.13)"/>
  <path d="m45.31 19.33 3.1 1.8v-5.3Z" style="fill:#2d68b1" transform="translate(-4.61 -3.13)"/>
  <path d="m44 20.43-7.9-.1 1.7 1.1-.1.3a.14.14 0 0 1-.2 0l.4 1.6 2.9.7h.3l.5-.6Z" style="fill:#6aacd1" transform="translate(-4.61 -3.13)"/>
  <path d="m37.81 21.43-.9 1v2l2 1.6.1.2 2.5-2.8Z" style="fill:#72cde6" transform="translate(-4.61 -3.13)"/>
  <path d="M37.81 21.43 31 20.33l8 5.8Z" style="fill:#38c3e3" transform="translate(-4.61 -3.13)"/>
</svg>
