<svg xmlns="http://www.w3.org/2000/svg" width="60" height="60" fill="none">
  <path fill="#ACE5AC" d="M44.216 45.01v1.602c0 .874-.708 1.582-1.582 1.582H17.32a1.582 1.582 0 0 1-1.582-1.582V13.388c0-.874.709-1.582 1.582-1.582h25.314c.874 0 1.582.708 1.582 1.582V45.01Z"/>
  <path fill="#FE9D5E" d="M42.21 41.082a4.56 4.56 0 1 1-9.12 0 4.56 4.56 0 0 1 9.12 0Z"/>
  <path fill="#FE5A3A" d="M39.777 41.082a2.128 2.128 0 1 1-4.256 0 2.128 2.128 0 0 1 4.256 0Z"/>
  <path fill="#699E69" d="M34.33 21.496a.593.593 0 0 1 0 1.187h-8.702a.593.593 0 1 1 0-1.187h8.701ZM21.276 19.52H38.68a.593.593 0 1 0 0-1.187H21.277a.593.593 0 0 0 0 1.187Zm3.164 21.753h-3.164a.593.593 0 1 0 0 1.187h3.164a.593.593 0 1 0 0-1.187Zm14.239-15.03H21.277a.593.593 0 1 0 0 1.187H38.68a.593.593 0 1 0 0-1.186Zm0 3.165H21.277a.593.593 0 1 0 0 1.186H38.68a.593.593 0 1 0 0-1.186Zm-8.702 8.701h-8.701a.593.593 0 1 0 0 1.187h8.701a.593.593 0 1 0 0-1.187Z"/>
  <g clip-path="url(#a)">
    <path fill="url(#b)" d="M23.977 16.44a7.6 7.6 0 1 1-5.536-9.212c4.069 1.01 6.552 5.138 5.536 9.213Z"/>
    <path fill="#fff" d="M20.223 13.655c.148-1.01-.618-1.556-1.675-1.918l.344-1.372-.831-.208-.333 1.336c-.22-.053-.445-.107-.671-.154l.333-1.343-.832-.208-.338 1.367a37.105 37.105 0 0 1-.535-.125v-.006l-1.152-.285-.22.89s.618.143.606.15c.338.082.398.308.386.486l-.392 1.562c.024.006.053.012.089.03-.03-.006-.06-.012-.09-.024l-.546 2.186c-.041.1-.148.255-.38.196.006.012-.605-.149-.605-.149l-.416.956 1.087.274c.202.053.398.1.594.154l-.345 1.384.832.208.344-1.372c.226.06.451.118.665.172l-.338 1.366.831.208.345-1.384c1.425.267 2.494.16 2.94-1.128.362-1.034-.018-1.634-.767-2.026.553-.124.963-.487 1.07-1.223Zm-1.907 2.673c-.255 1.033-2.002.475-2.566.332l.458-1.835c.564.142 2.381.421 2.108 1.503Zm.261-2.691c-.237.944-1.686.463-2.156.345l.416-1.663c.47.118 1.984.338 1.74 1.318Z"/>
  </g>
  <rect width="15.204" height="15.204" x="38.238" y="18.328" fill="#888" rx="7.602"/>
  <g clip-path="url(#c)">
    <path fill="#fff" d="m45.816 28.619-3.318-1.958 3.316 4.674 3.32-4.674-3.32 1.958h.002Zm.05-8.093-3.317 5.505 3.316 1.961 3.319-1.96-3.319-5.506Z"/>
  </g>
  <g clip-path="url(#d)">
    <path fill="#26A17B" d="M18.34 50.795a8.083 8.083 0 1 0-4.59-15.5 8.083 8.083 0 0 0 4.59 15.5Z"/>
    <path fill="#fff" fill-rule="evenodd" d="M17.175 43.44v-.002c-.052.02-.322.118-.935.3-.49.144-.838.231-.96.261v.002c-1.908.475-3.41.563-3.527.17-.116-.391 1.192-1.136 3.05-1.777l.38 1.28c.126-.027.485-.11.972-.255.584-.173.87-.284.924-.305l-.38-1.28c1.905-.473 3.404-.56 3.52-.17.116.393-1.19 1.135-3.044 1.775Zm-.515-1.74-.34-1.146 2.623-.776-.517-1.748-7.14 2.114.517 1.748 2.622-.777.34 1.146c-2.103.729-3.58 1.626-3.43 2.131.149.506 1.877.453 4.037-.08l1.087 3.673 1.896-.56-1.088-3.674c2.1-.728 3.573-1.623 3.424-2.129-.15-.505-1.874-.453-4.03.078Z" clip-rule="evenodd"/>
  </g>
  <defs>
    <clipPath id="a">
      <path fill="#fff" d="M9 7h15.204v15.204H9z"/>
    </clipPath>
    <clipPath id="c">
      <path fill="#fff" d="M40.435 20.526h10.81v10.809h-10.81z"/>
    </clipPath>
    <clipPath id="d">
      <path fill="#fff" d="M6 37.59 21.5 33l4.59 15.5-15.5 4.59z"/>
    </clipPath>
    <linearGradient id="b" x1="768.802" x2="768.802" y1="6.635" y2="1527.27" gradientUnits="userSpaceOnUse">
      <stop stop-color="#F9AA4B"/>
      <stop offset="1" stop-color="#F7931A"/>
    </linearGradient>
  </defs>
</svg>
