<svg xmlns="http://www.w3.org/2000/svg" width="60" height="68" fill="none">
  <path fill="#FFDECF" d="M21.584 33.758a.729.729 0 0 0-.126.038 2.398 2.398 0 0 0 .475 4.732c-.468-1.316-.335-3.364-.349-4.77Z"/>
  <path fill="#F36021" d="M19.35 28.792c1.686-1.597 2.013-4.723-.651-5.344a2.146 2.146 0 0 0-1.817.508 2.175 2.175 0 0 0-1.667-.533c-2.775.545-2.557 3.684-.806 5.363 2.39 2.398 2.545 2.415 4.941.006Z"/>
  <path fill="#FFE589" d="M45.41 22.84h-3.897a2.493 2.493 0 0 0-2.488 2.487v1.432c0 .46.133.91.38 1.299l-.308 1.271a.553.553 0 0 0 .793.611l1.447-.77 4.068.016a2.492 2.492 0 0 0 2.488-2.488v-1.37a2.49 2.49 0 0 0-2.482-2.489Zm-.076 3.632h-3.375a.55.55 0 0 1 0-1.1h3.374a.55.55 0 0 1 0 1.1Z"/>
  <path fill="#2196F3" d="M41.292 51.063a5.347 5.347 0 0 0-3.3-3.18l-2.711-.919c-.871-.299-1.664-.79-2.319-1.437L29.935 49.7a.644.644 0 0 1-1.02.006c-.546-.719-2.647-3.491-3.16-4.161-1.114 1.27-3.356 1.809-4.897 2.337a5.317 5.317 0 0 0-3.3 3.18l-1.85 4.899a1.79 1.79 0 0 0 1.634 2.473h1.166c.339-.79 1.297-3.062 1.648-3.889a.633.633 0 0 1 1.166.493c-.314.786-1.125 2.628-1.44 3.396h19.079l-1.44-3.396a.633.633 0 0 1 1.166-.493l1.648 3.89h1.143a1.784 1.784 0 0 0 1.682-2.407l-1.868-4.966Zm-11.877.354a.605.605 0 0 1 0 1.21.605.605 0 0 1 0-1.21Zm0 5.53a.605.605 0 0 1 0-1.21.605.605 0 0 1 0 1.21Zm0-1.92a.602.602 0 1 1 0-1.203.602.602 0 0 1 0 1.204Z"/>
  <path fill="#FFDECF" d="M25.94 43.212c-.006.032-.006.494-.006.494.822 1.045 2.63 3.448 3.452 4.523.789-1.096 2.588-3.545 3.358-4.611 0 0 0-.323-.006-.349a7.816 7.816 0 0 1-6.798-.057ZM37.362 33.796a.727.727 0 0 0-.127-.038c-.014 1.406.12 3.454-.348 4.77a2.397 2.397 0 0 0 .475-4.732Z"/>
  <path fill="#FF9060" d="M22.329 32.644c1.569-.19 3.688-.888 4.727-2.335 1.941 1.937 5.988 3.002 9.51 2.138.73-.046 1.47-.475 1.418-1.311-.065-7.377-8.805-11.474-14.352-6.165-1.78 1.745-2.45 3.565-2.617 6.448a1.18 1.18 0 0 0 1.314 1.225Z"/>
  <path fill="#FFDECF" d="M35.977 33.84c-3.02.476-6.398-.07-8.802-1.827a8.902 8.902 0 0 1-4.322 1.832v2.369c.367 8.686 12.75 8.73 13.13.002-.003-.472.007-1.924-.006-2.376Z"/>
  <path fill="#F36021" d="M43.078 39.19a2.128 2.128 0 0 0-1.817.508 2.152 2.152 0 0 0-1.667-.534c-2.766.532-2.56 3.703-.806 5.363 2.376 2.385 2.557 2.415 4.935.006 1.69-1.584 2.02-4.736-.645-5.344Z"/>
  <path fill="#FFE589" d="M16.022 45.655V43.03a.934.934 0 0 0-.93-.934h-.418a.934.934 0 0 0-.934.934v2.62a.934.934 0 0 0 .934.934h.418a.936.936 0 0 0 .93-.93ZM19.85 46.607a1.045 1.045 0 0 0 1.028-.86l.446-2.346a1.06 1.06 0 0 0-.985-1.245l-.581-.028.14-.93c.22-1.016-1.314-2.037-1.794-.845l-.298.99c-.12.486-.622.707-1.003.962.097.229.148.475.148.725a27.662 27.662 0 0 1-.07 3.122c.752.603 2.078.427 2.97.455Z"/>
  <path fill="#fff" d="M30.935 14.736a1.152 1.152 0 0 0 1.151-1.152v-2.118a1.152 1.152 0 1 0-2.303 0v2.118a1.153 1.153 0 0 0 1.152 1.152ZM36.263 14.736a1.152 1.152 0 0 0 1.151-1.152v-2.118a1.152 1.152 0 0 0-2.303 0v2.118a1.153 1.153 0 0 0 1.152 1.152Z"/>
  <path fill="#fff" d="M15.7 19.914H33.55l-.103.334c-.46 1.311 1.043 2.613 2.272 1.982l4.744-2.203a1.23 1.23 0 0 1 .514-.113H43.3a3.704 3.704 0 0 0 3.699-3.7V8.7A3.704 3.704 0 0 0 43.3 5H15.7A3.704 3.704 0 0 0 12 8.7v7.515a3.703 3.703 0 0 0 3.7 3.699ZM39.566 9.895a.42.42 0 0 1 .84 0v1.73l2.488-2.073a.42.42 0 0 1 .538.645l-2.761 2.301 2.76 2.3a.423.423 0 0 1 .055.592.421.421 0 0 1-.592.054l-2.488-2.073v1.785a.42.42 0 1 1-.84 0V9.895Zm-5.295 1.571a1.991 1.991 0 1 1 3.983 0v2.118a1.991 1.991 0 1 1-3.983 0v-2.118Zm-5.329 0a1.991 1.991 0 1 1 3.983 0v2.118a1.992 1.992 0 0 1-3.983 0v-2.118Zm-3.605.255 1.574-2.098c.225-.322.77-.14.756.252v5.28a.42.42 0 1 1-.84 0v-4.02l-.818 1.09a.42.42 0 0 1-.672-.504Zm-9.629-.658c.236-.717.93-1.42 1.684-1.407a1.92 1.92 0 0 1 1.651 1.042.265.265 0 0 0 .477 0 1.92 1.92 0 0 1 1.651-1.042c.755-.013 1.448.69 1.684 1.407.759 2.304-1.6 3.83-3.253 4.413a.958.958 0 0 1-.64 0c-1.655-.584-4.012-2.11-3.254-4.413Z"/>
</svg>
