<svg xmlns="http://www.w3.org/2000/svg" width="60" height="60" fill="none">
  <g clip-path="url(#a)">
    <path fill="url(#b)" d="M42.219 7H17.78C11.827 7 7 11.827 7 17.781V42.22C7 48.173 11.827 53 17.781 53H42.22C48.173 53 53 48.173 53 42.219V17.78C53 11.827 48.173 7 42.219 7Z"/>
    <path fill="url(#c)" fill-opacity=".73" d="M42.219 7H17.78C11.827 7 7 11.827 7 17.781V42.22C7 48.173 11.827 53 17.781 53H42.22C48.173 53 53 48.173 53 42.219V17.78C53 11.827 48.173 7 42.219 7Z"/>
  </g>
  <g fill="#fff" clip-path="url(#d)">
    <path d="M31.344 31.708a.9.9 0 0 0-1.688 0l.844.603.844-.603ZM30.5 35.992c-.155.14-.333.256-.527.342l.155.623h.745l.156-.623a2.03 2.03 0 0 1-.528-.343ZM37.954 23.178l.099-.095c1.403-1.404 1.688-3.395.635-4.447-1.053-1.053-3.044-.769-4.447.635-.036.035-.07.072-.104.108a8.366 8.366 0 0 1 3.817 3.8ZM26.863 19.379a4.588 4.588 0 0 0-.105-.108c-1.403-1.404-3.394-1.688-4.447-.636-1.052 1.053-.768 3.044.636 4.447.032.033.065.065.099.096a8.366 8.366 0 0 1 3.817-3.8Z"/>
    <path d="M22.773 38.504a9.9 9.9 0 0 0 .343.262C25.097 40.206 27.72 41 30.501 41c2.781 0 5.403-.794 7.384-2.234a9.93 9.93 0 0 0 .343-.262c-.852-2.888-3.144-5.121-5.994-5.775l-1.06.756v1.001a.675.675 0 0 0 1.348 0 .674.674 0 1 1 1.348 0c0 .926-.626 1.708-1.477 1.947l-.34 1.361a.674.674 0 0 1-.654.51h-1.797a.674.674 0 0 1-.653-.51l-.34-1.361a2.025 2.025 0 0 1-1.477-1.947.674.674 0 1 1 1.347 0 .675.675 0 0 0 1.348 0v-1l-1.06-.757c-2.85.654-5.141 2.887-5.994 5.775Z"/>
    <path d="M23.82 34.07a9.28 9.28 0 0 1 4.508-2.625A2.25 2.25 0 0 1 30.5 29.77a2.25 2.25 0 0 1 2.172 1.675 9.28 9.28 0 0 1 4.509 2.625 9.84 9.84 0 0 1 2.131 3.413c1.135-1.274 1.745-2.77 1.745-4.344 0-2.288-1.305-4.427-3.594-5.918v-.371a6.97 6.97 0 0 0-6.963-6.963 6.97 6.97 0 0 0-6.963 6.963v.371c-2.29 1.491-3.594 3.63-3.594 5.918 0 1.574.61 3.07 1.745 4.343a9.838 9.838 0 0 1 2.131-3.412Zm9.15-7.22a.674.674 0 0 1 1.348 0v1.347a.674.674 0 0 1-1.347 0V26.85Zm-6.288 0a.674.674 0 0 1 1.347 0v1.347a.674.674 0 0 1-1.347 0V26.85Z"/>
  </g>
  <defs>
    <radialGradient id="b" cx="0" cy="0" r="1" gradientTransform="matrix(0 -45.5894 42.4018 0 19.219 56.543)" gradientUnits="userSpaceOnUse">
      <stop stop-color="#FD5"/>
      <stop offset=".1" stop-color="#FD5"/>
      <stop offset=".5" stop-color="#FF543E"/>
      <stop offset="1" stop-color="#C837AB"/>
    </radialGradient>
    <radialGradient id="c" cx="0" cy="0" r="1" gradientTransform="matrix(23.20517 38.18636 -157.40565 95.6526 -.705 10.314)" gradientUnits="userSpaceOnUse">
      <stop stop-color="#3771C8"/>
      <stop offset=".128" stop-color="#3771C8"/>
      <stop offset="1" stop-color="#60F" stop-opacity="0"/>
    </radialGradient>
    <clipPath id="a">
      <path fill="#fff" d="M7 7h46v46H7z"/>
    </clipPath>
    <clipPath id="d">
      <path fill="#fff" d="M19 18h23v23H19z"/>
    </clipPath>
  </defs>
</svg>
