<svg xmlns="http://www.w3.org/2000/svg" width="60" height="60" fill="none">
  <g clip-path="url(#a)">
    <path fill="#99E6FD" d="M30.001 17.705a6.148 6.148 0 1 0 0-12.295 6.148 6.148 0 0 0 0 12.295Z"/>
    <path fill="#67D9FB" d="M32.05 15.656a6.144 6.144 0 0 1-5.248-9.346 6.146 6.146 0 1 0 8.446 8.446 6.11 6.11 0 0 1-3.198.9Z"/>
    <path fill="#99E6FD" d="M34.098 17.705H25.9a4.103 4.103 0 0 0-4.098 4.098V30a2.05 2.05 0 0 0 2.049 2.05h12.295a2.05 2.05 0 0 0 2.05-2.05v-8.197a4.103 4.103 0 0 0-4.1-4.098Z"/>
    <path fill="#67D9FB" d="M25.901 30v-8.197A4.103 4.103 0 0 1 30 17.705H25.9a4.103 4.103 0 0 0-4.098 4.098V30a2.05 2.05 0 0 0 2.049 2.05h4.098A2.05 2.05 0 0 1 25.901 30ZM46.394 23.852a6.148 6.148 0 1 0 0-12.295 6.148 6.148 0 0 0 0 12.295Z"/>
    <path fill="#34CDFA" d="M48.442 21.803a6.144 6.144 0 0 1-5.247-9.346 6.146 6.146 0 1 0 8.446 8.446 6.11 6.11 0 0 1-3.199.9Z"/>
    <path fill="#67D9FB" d="M50.492 23.852h-8.196a4.103 4.103 0 0 0-4.099 4.099v8.197a2.05 2.05 0 0 0 2.05 2.049H52.54a2.05 2.05 0 0 0 2.05-2.05v-8.196a4.103 4.103 0 0 0-4.099-4.099Z"/>
    <path fill="#34CDFA" d="M42.296 36.148V27.95a4.103 4.103 0 0 1 4.098-4.099h-4.098a4.103 4.103 0 0 0-4.099 4.099v8.197a2.05 2.05 0 0 0 2.05 2.049h4.098a2.05 2.05 0 0 1-2.05-2.05Z"/>
    <path fill="#67D9FB" d="M13.607 23.852a6.148 6.148 0 1 0 0-12.295 6.148 6.148 0 0 0 0 12.295Z"/>
    <path fill="#34CDFA" d="M15.655 21.803a6.144 6.144 0 0 1-5.247-9.346 6.146 6.146 0 1 0 8.446 8.446 6.11 6.11 0 0 1-3.199.9Z"/>
    <path fill="#67D9FB" d="M17.705 23.852H9.51a4.103 4.103 0 0 0-4.099 4.099v8.197a2.05 2.05 0 0 0 2.05 2.049h12.294a2.05 2.05 0 0 0 2.05-2.05v-8.196a4.103 4.103 0 0 0-4.099-4.099Z"/>
    <path fill="#34CDFA" d="M9.509 36.148V27.95a4.103 4.103 0 0 1 4.098-4.099H9.509a4.103 4.103 0 0 0-4.099 4.099v8.197a2.05 2.05 0 0 0 2.05 2.049h4.098a2.05 2.05 0 0 1-2.05-2.05Z"/>
    <path fill="#F36021" d="M45.108 26.243c-2.719-3.362-8.069-5.718-15.107-2.606-7.039-3.113-12.389-.756-15.107 2.606-3.166 3.916-4.02 10.794 1.211 17.332 4.8 5.999 12.537 10.546 12.864 10.736a2.05 2.05 0 0 0 2.063 0c.328-.19 8.065-4.738 12.864-10.736 5.23-6.538 4.377-13.416 1.212-17.332Z"/>
    <path fill="#DD5217" d="M21.228 43.064c-5.23-6.539-4.377-13.416-1.211-17.333a10.897 10.897 0 0 1 5.035-3.473c-4.6-.492-8.12 1.464-10.158 3.985-3.166 3.916-4.02 10.794 1.211 17.332 4.8 5.999 12.537 10.546 12.864 10.737a2.05 2.05 0 0 0 2.063 0 44.91 44.91 0 0 0 1.925-1.21c-2.38-1.514-7.96-5.328-11.729-10.038Z"/>
    <path fill="#fff" d="M28.876 34.11h7.172V30.01H31.95v-2.05h-4.098v2.152a5.122 5.122 0 0 0 1.024 10.144h2.05a1.025 1.025 0 0 1 0 2.05h-7.173v4.097h4.099v2.05h4.098v-2.152a5.123 5.123 0 0 0-1.025-10.143h-2.049a1.025 1.025 0 0 1 0-2.05Z"/>
  </g>
  <defs>
    <clipPath id="a">
      <path fill="#fff" d="M5.41 5.41h49.18v49.18H5.41z"/>
    </clipPath>
  </defs>
</svg>
