<svg xmlns="http://www.w3.org/2000/svg" width="60" height="60" fill="none">
  <path fill="#FB9927" d="M11.5 37a.463.463 0 0 1-.34-.14.478.478 0 0 1-.1-.46.452.452 0 0 1 .08-.16l3.28-4.6-2.96-4.28a1.328 1.328 0 0 1-.08-.14.66.66 0 0 1-.02-.16.44.44 0 0 1 .14-.32.44.44 0 0 1 .32-.14h3.06c.186 0 .326.047.42.14.093.08.16.153.2.22l1.5 2.18 1.5-2.18c.053-.067.12-.14.2-.22.093-.093.233-.14.42-.14h2.92a.44.44 0 0 1 .32.14.42.42 0 0 1 .14.3.74.74 0 0 1-.02.18.297.297 0 0 1-.08.14l-3.02 4.28 3.34 4.6a.45.45 0 0 1 .08.16.44.44 0 0 1-.12.46.44.44 0 0 1-.32.14h-3.2c-.174 0-.3-.04-.38-.12a2.733 2.733 0 0 1-.2-.22l-1.66-2.32-1.72 2.32a.957.957 0 0 1-.2.22c-.08.08-.207.12-.38.12H11.5Zm14.287 0a.478.478 0 0 1-.32-.12.478.478 0 0 1-.12-.32c0-.067.014-.127.04-.18l4.48-9.82h-5.76a.558.558 0 0 1-.38-.14.558.558 0 0 1-.14-.38v-2.52c0-.147.047-.267.14-.36a.52.52 0 0 1 .38-.16h9.86c.16 0 .287.053.38.16.094.093.14.213.14.36v2.2c0 .213-.026.4-.08.56-.04.147-.093.287-.16.42l-4.48 9.84c-.053.067-.14.16-.26.28-.106.12-.28.18-.52.18h-3.2Zm15.853.24c-1.333 0-2.447-.2-3.34-.6-.893-.413-1.567-.947-2.02-1.6-.453-.667-.693-1.38-.72-2.14 0-.12.04-.22.12-.3a.44.44 0 0 1 .32-.14h3.34c.2 0 .353.04.46.12.107.08.18.16.22.24.133.227.273.42.42.58.147.147.32.26.52.34.2.067.433.1.7.1.293 0 .567-.06.82-.18.253-.133.453-.32.6-.56.16-.253.24-.56.24-.92a1.44 1.44 0 0 0-.22-.8 1.515 1.515 0 0 0-.58-.58 1.617 1.617 0 0 0-.86-.22c-.267 0-.487.033-.66.1-.16.053-.293.12-.4.2-.107.08-.207.153-.3.22a.493.493 0 0 1-.28.08h-3.3a.478.478 0 0 1-.32-.12.478.478 0 0 1-.12-.32l.76-7.1c.027-.213.107-.373.24-.48a.799.799 0 0 1 .48-.16h8.48c.147 0 .267.053.36.16.107.093.16.213.16.36v2.36a.497.497 0 0 1-.16.36.456.456 0 0 1-.36.16h-5.82l-.2 2a3.669 3.669 0 0 1 1.06-.5c.387-.12.92-.18 1.6-.18a4.85 4.85 0 0 1 1.8.34 4.65 4.65 0 0 1 1.56.94c.467.4.833.88 1.1 1.44.267.56.4 1.18.4 1.86 0 .907-.233 1.733-.7 2.48-.467.747-1.153 1.347-2.06 1.8-.907.44-2.02.66-3.34.66Z"/>
</svg>
