<svg xmlns="http://www.w3.org/2000/svg" width="60" height="60" fill="none">
  <path fill="#FB9927" d="M10.494 37a.463.463 0 0 1-.34-.14.478.478 0 0 1-.1-.46.45.45 0 0 1 .08-.16l3.28-4.6-2.96-4.28a1.31 1.31 0 0 1-.08-.14.66.66 0 0 1-.02-.16.44.44 0 0 1 .14-.32.44.44 0 0 1 .32-.14h3.06c.187 0 .327.047.42.14a.96.96 0 0 1 .2.22l1.5 2.18 1.5-2.18c.053-.067.12-.14.2-.22.093-.093.233-.14.42-.14h2.92a.44.44 0 0 1 .32.14.42.42 0 0 1 .14.3.745.745 0 0 1-.02.18.297.297 0 0 1-.08.14l-3.02 4.28 3.34 4.6a.45.45 0 0 1 .08.16.44.44 0 0 1-.12.46.44.44 0 0 1-.32.14h-3.2c-.173 0-.3-.04-.38-.12a2.715 2.715 0 0 1-.2-.22l-1.66-2.32-1.72 2.32a.96.96 0 0 1-.2.22c-.08.08-.207.12-.38.12h-3.12Zm18.168.24c-1.334 0-2.447-.2-3.34-.6-.894-.413-1.567-.947-2.02-1.6-.454-.667-.694-1.38-.72-2.14 0-.12.04-.22.12-.3a.44.44 0 0 1 .32-.14h3.34c.2 0 .353.04.46.12.106.08.18.16.22.24.133.227.273.42.42.58.146.147.32.26.52.34.2.067.433.1.7.1.293 0 .566-.06.82-.18.253-.133.453-.32.6-.56.16-.253.24-.56.24-.92a1.44 1.44 0 0 0-.22-.8 1.515 1.515 0 0 0-.58-.58 1.617 1.617 0 0 0-.86-.22c-.267 0-.487.033-.66.1-.16.053-.294.12-.4.2-.107.08-.207.153-.3.22a.493.493 0 0 1-.28.08h-3.3a.478.478 0 0 1-.32-.12.478.478 0 0 1-.12-.32l.76-7.1c.026-.213.106-.373.24-.48a.799.799 0 0 1 .48-.16h8.48c.146 0 .266.053.36.16.106.093.16.213.16.36v2.36a.497.497 0 0 1-.16.36.456.456 0 0 1-.36.16h-5.82l-.2 2a3.669 3.669 0 0 1 1.06-.5c.386-.12.92-.18 1.6-.18a4.85 4.85 0 0 1 1.8.34 4.65 4.65 0 0 1 1.56.94c.466.4.833.88 1.1 1.44.266.56.4 1.18.4 1.86 0 .907-.234 1.733-.7 2.48-.467.747-1.154 1.347-2.06 1.8-.907.44-2.02.66-3.34.66Zm13.699-.04c-.987 0-1.847-.133-2.58-.4-.733-.267-1.347-.633-1.84-1.1a4.984 4.984 0 0 1-1.12-1.64 6.191 6.191 0 0 1-.46-2.06c-.027-.36-.047-.787-.06-1.28v-1.48c.013-.507.033-.947.06-1.32a5.82 5.82 0 0 1 .46-2.02A4.746 4.746 0 0 1 38 24.28a5.246 5.246 0 0 1 1.84-1.08c.72-.267 1.56-.4 2.52-.4.947 0 1.78.133 2.5.4.733.253 1.347.613 1.84 1.08.507.453.893.993 1.16 1.62.28.613.447 1.287.5 2.02.027.373.04.813.04 1.32v1.48c0 .493-.014.92-.04 1.28a6.56 6.56 0 0 1-.48 2.06 4.613 4.613 0 0 1-1.12 1.64c-.494.467-1.107.833-1.84 1.1-.733.267-1.587.4-2.56.4Zm0-3.42c.533 0 .92-.173 1.16-.52.24-.347.367-.8.38-1.36.026-.387.04-.807.04-1.26v-1.36c0-.467-.014-.88-.04-1.24-.014-.533-.14-.973-.38-1.32-.227-.36-.614-.547-1.16-.56-.547.013-.933.2-1.16.56-.227.347-.354.787-.38 1.32-.014.36-.027.773-.04 1.24v1.36c.013.453.026.873.04 1.26.026.56.153 1.013.38 1.36.24.347.627.52 1.16.52Z"/>
</svg>
