<svg xmlns="http://www.w3.org/2000/svg" width="60" height="60" fill="none">
  <path fill="#FB9927" d="M10.338 37a.463.463 0 0 1-.34-.14.478.478 0 0 1-.1-.46.45.45 0 0 1 .08-.16l3.28-4.6-2.96-4.28a1.328 1.328 0 0 1-.08-.14.66.66 0 0 1-.02-.16.44.44 0 0 1 .14-.32.44.44 0 0 1 .32-.14h3.06c.186 0 .326.047.42.14.093.08.16.153.2.22l1.5 2.18 1.5-2.18c.053-.067.12-.14.2-.22.093-.093.233-.14.42-.14h2.92a.44.44 0 0 1 .32.14.42.42 0 0 1 .14.3.74.74 0 0 1-.02.18.297.297 0 0 1-.08.14l-3.02 4.28 3.34 4.6a.45.45 0 0 1 .08.16.44.44 0 0 1-.12.46.44.44 0 0 1-.32.14h-3.2c-.174 0-.3-.04-.38-.12a2.733 2.733 0 0 1-.2-.22l-1.66-2.32-1.72 2.32a.957.957 0 0 1-.2.22c-.08.08-.207.12-.38.12h-3.12Zm18.247.2c-1.106 0-2.053-.133-2.84-.4-.773-.267-1.406-.6-1.9-1-.48-.413-.833-.853-1.06-1.32-.226-.467-.346-.9-.36-1.3 0-.12.04-.22.12-.3a.38.38 0 0 1 .3-.14h3.32c.174 0 .307.033.4.1.094.053.18.14.26.26.094.16.22.3.38.42.16.107.354.187.58.24.227.04.5.06.82.06.574 0 1.007-.127 1.3-.38.294-.267.44-.613.44-1.04 0-.427-.146-.733-.44-.92-.293-.2-.713-.3-1.26-.3h-2.36a.52.52 0 0 1-.38-.16.533.533 0 0 1-.14-.36v-1.38c0-.187.034-.34.1-.46a.763.763 0 0 1 .26-.28l3.02-2.14h-5.4a.52.52 0 0 1-.38-.16.533.533 0 0 1-.14-.36v-2.36c0-.147.047-.267.14-.36a.52.52 0 0 1 .38-.16h9.72c.147 0 .267.053.36.16.107.093.16.213.16.36v2.12c0 .173-.033.32-.1.44a.832.832 0 0 1-.24.28l-2.7 2.2.08.04a6.31 6.31 0 0 1 1.92.68c.574.307 1.027.74 1.36 1.3.334.56.5 1.267.5 2.12 0 .907-.273 1.7-.82 2.38-.533.667-1.266 1.187-2.2 1.56-.92.373-1.986.56-3.2.56Zm13.932 0c-.987 0-1.847-.133-2.58-.4-.733-.267-1.347-.633-1.84-1.1a4.985 4.985 0 0 1-1.12-1.64 6.191 6.191 0 0 1-.46-2.06c-.027-.36-.047-.787-.06-1.28v-1.48c.013-.507.033-.947.06-1.32a5.82 5.82 0 0 1 .46-2.02 4.746 4.746 0 0 1 1.18-1.62 5.247 5.247 0 0 1 1.84-1.08c.72-.267 1.56-.4 2.52-.4.947 0 1.78.133 2.5.4.733.253 1.347.613 1.84 1.08.507.453.893.993 1.16 1.62.28.613.447 1.287.5 2.02.027.373.04.813.04 1.32v1.48c0 .493-.013.92-.04 1.28a6.554 6.554 0 0 1-.48 2.06 4.612 4.612 0 0 1-1.12 1.64c-.493.467-1.107.833-1.84 1.1-.733.267-1.587.4-2.56.4Zm0-3.42c.533 0 .92-.173 1.16-.52.24-.347.367-.8.38-1.36.027-.387.04-.807.04-1.26v-1.36c0-.467-.013-.88-.04-1.24-.013-.533-.14-.973-.38-1.32-.227-.36-.613-.547-1.16-.56-.547.013-.933.2-1.16.56-.227.347-.353.787-.38 1.32-.013.36-.027.773-.04 1.24v1.36c.013.453.027.873.04 1.26.027.56.153 1.013.38 1.36.24.347.627.52 1.16.52Z"/>
</svg>
