<svg xmlns="http://www.w3.org/2000/svg" width="60" height="60" fill="none">
  <path fill="#FB9927" d="M12.4 37a.463.463 0 0 1-.34-.14.478.478 0 0 1-.1-.46.452.452 0 0 1 .08-.16l3.28-4.6-2.96-4.28a1.328 1.328 0 0 1-.08-.14.66.66 0 0 1-.02-.16.44.44 0 0 1 .14-.32.44.44 0 0 1 .32-.14h3.06c.187 0 .327.047.42.14.094.08.16.153.2.22l1.5 2.18 1.5-2.18c.054-.067.12-.14.2-.22.094-.093.234-.14.42-.14h2.92a.44.44 0 0 1 .32.14.42.42 0 0 1 .14.3.74.74 0 0 1-.02.18.297.297 0 0 1-.08.14l-3.02 4.28 3.34 4.6a.45.45 0 0 1 .08.16.44.44 0 0 1-.12.46.44.44 0 0 1-.32.14h-3.2c-.173 0-.3-.04-.38-.12a2.733 2.733 0 0 1-.2-.22l-1.66-2.32-1.72 2.32a.957.957 0 0 1-.2.22c-.08.08-.206.12-.38.12H12.4Zm17.088 0a.558.558 0 0 1-.38-.14.558.558 0 0 1-.14-.38v-8.8l-2.5 1.92a.549.549 0 0 1-.4.08c-.12-.027-.234-.107-.34-.24l-1.46-1.9a.679.679 0 0 1-.08-.4.483.483 0 0 1 .24-.34l4.72-3.66a.471.471 0 0 1 .2-.1.645.645 0 0 1 .24-.04h3.14c.146 0 .273.053.38.16.106.093.16.213.16.36v12.96a.519.519 0 0 1-.16.38.558.558 0 0 1-.38.14h-3.24Zm11.967.2c-.987 0-1.847-.133-2.58-.4-.734-.267-1.347-.633-1.84-1.1a4.985 4.985 0 0 1-1.12-1.64 6.191 6.191 0 0 1-.46-2.06c-.027-.36-.047-.787-.06-1.28v-1.48c.013-.507.033-.947.06-1.32a5.82 5.82 0 0 1 .46-2.02 4.746 4.746 0 0 1 1.18-1.62 5.247 5.247 0 0 1 1.84-1.08c.72-.267 1.56-.4 2.52-.4.946 0 1.78.133 2.5.4.733.253 1.346.613 1.84 1.08.506.453.893.993 1.16 1.62.28.613.446 1.287.5 2.02.026.373.04.813.04 1.32v1.48c0 .493-.014.92-.04 1.28a6.554 6.554 0 0 1-.48 2.06 4.612 4.612 0 0 1-1.12 1.64c-.494.467-1.107.833-1.84 1.1-.734.267-1.587.4-2.56.4Zm0-3.42c.533 0 .92-.173 1.16-.52.24-.347.366-.8.38-1.36.026-.387.04-.807.04-1.26v-1.36c0-.467-.014-.88-.04-1.24-.014-.533-.14-.973-.38-1.32-.227-.36-.614-.547-1.16-.56-.547.013-.934.2-1.16.56-.227.347-.354.787-.38 1.32-.014.36-.027.773-.04 1.24v1.36c.013.453.026.873.04 1.26.026.56.153 1.013.38 1.36.24.347.626.52 1.16.52Z"/>
</svg>
