<svg xmlns="http://www.w3.org/2000/svg" width="60" height="60" fill="none">
  <path stroke="#26A17B" d="m3 39 15.99-5.33a2 2 0 0 0 .866-.572l9.807-11.087a2 2 0 0 1 2.836-.162l1.906 1.716a2 2 0 0 0 2.915-.256L52 4.5"/>
  <path stroke="#A14B26" d="m51 38.5-9.12-3.36a1.999 1.999 0 0 1-.676-.417l-7.056-6.615a2 2 0 0 0-1.534-.534l-3.861.322a2 2 0 0 1-1.89-.98l-4.1-6.97a2 2 0 0 0-.709-.709L3 8"/>
  <path fill="#FB9927" d="M17.654 57a.231.231 0 0 1-.17-.07.239.239 0 0 1-.05-.23.226.226 0 0 1 .04-.08l1.64-2.3-1.48-2.14a.668.668 0 0 1-.04-.07.332.332 0 0 1-.01-.08.22.22 0 0 1 .07-.16.22.22 0 0 1 .16-.07h1.53c.094 0 .164.023.21.07a.48.48 0 0 1 .1.11l.75 1.09.75-1.09c.027-.033.06-.07.1-.11.047-.047.117-.07.21-.07h1.46a.22.22 0 0 1 .16.07.21.21 0 0 1 .07.15.37.37 0 0 1-.01.09.148.148 0 0 1-.04.07l-1.51 2.14 1.67 2.3c.02.027.034.053.04.08a.22.22 0 0 1-.06.23.22.22 0 0 1-.16.07h-1.6c-.086 0-.15-.02-.19-.06a1.375 1.375 0 0 1-.1-.11l-.83-1.16-.86 1.16a.48.48 0 0 1-.1.11c-.04.04-.103.06-.19.06h-1.56Zm8.544 0a.279.279 0 0 1-.19-.07.279.279 0 0 1-.07-.19v-4.4l-1.25.96a.275.275 0 0 1-.2.04.31.31 0 0 1-.17-.12l-.73-.95a.338.338 0 0 1-.04-.2.241.241 0 0 1 .12-.17l2.36-1.83a.235.235 0 0 1 .1-.05.323.323 0 0 1 .12-.02h1.57a.26.26 0 0 1 .19.08c.053.047.08.107.08.18v6.48a.26.26 0 0 1-.08.19.279.279 0 0 1-.19.07h-1.62Zm5.983.1c-.493 0-.923-.067-1.29-.2a2.622 2.622 0 0 1-.92-.55 2.492 2.492 0 0 1-.56-.82 3.097 3.097 0 0 1-.23-1.03 14 14 0 0 1-.03-.64v-.74c.007-.253.017-.473.03-.66a2.91 2.91 0 0 1 .23-1.01c.14-.313.337-.583.59-.81.254-.233.56-.413.92-.54.36-.133.78-.2 1.26-.2.474 0 .89.067 1.25.2.367.127.674.307.92.54.254.227.447.497.58.81.14.307.224.643.25 1.01.014.187.02.407.02.66v.74c0 .247-.006.46-.02.64a3.28 3.28 0 0 1-.24 1.03 2.306 2.306 0 0 1-.56.82 2.622 2.622 0 0 1-.92.55 3.74 3.74 0 0 1-1.28.2Zm0-1.71c.267 0 .46-.087.58-.26.12-.173.184-.4.19-.68.014-.193.02-.403.02-.63v-.68c0-.233-.006-.44-.02-.62-.006-.267-.07-.487-.19-.66-.113-.18-.306-.273-.58-.28-.273.007-.466.1-.58.28a1.307 1.307 0 0 0-.19.66l-.02.62v.68l.02.63c.014.28.077.507.19.68.12.173.314.26.58.26Zm6.993 1.71c-.494 0-.924-.067-1.29-.2a2.622 2.622 0 0 1-.92-.55 2.492 2.492 0 0 1-.56-.82 3.097 3.097 0 0 1-.23-1.03 14 14 0 0 1-.03-.64v-.74c.006-.253.016-.473.03-.66a2.91 2.91 0 0 1 .23-1.01c.14-.313.336-.583.59-.81.253-.233.56-.413.92-.54.36-.133.78-.2 1.26-.2.473 0 .89.067 1.25.2.366.127.673.307.92.54.253.227.446.497.58.81.14.307.223.643.25 1.01.013.187.02.407.02.66v.74c0 .247-.007.46-.02.64a3.28 3.28 0 0 1-.24 1.03 2.306 2.306 0 0 1-.56.82 2.622 2.622 0 0 1-.92.55 3.74 3.74 0 0 1-1.28.2Zm0-1.71c.266 0 .46-.087.58-.26.12-.173.183-.4.19-.68.013-.193.02-.403.02-.63v-.68c0-.233-.007-.44-.02-.62-.007-.267-.07-.487-.19-.66-.114-.18-.307-.273-.58-.28-.274.007-.467.1-.58.28a1.307 1.307 0 0 0-.19.66c-.007.18-.014.387-.02.62v.68c.006.227.013.437.02.63.013.28.076.507.19.68.12.173.313.26.58.26Z"/>
  <g clip-path="url(#a)">
    <path fill="url(#b)" d="M36.167 9.656a6.088 6.088 0 1 1-11.719 3.303 6.088 6.088 0 0 1 11.719-3.303Z"/>
    <path fill="#fff" d="M32.449 9.21c-.298-.76-1.048-.836-1.927-.668l-.306-1.09-.66.185.3 1.062c-.175.05-.353.102-.529.159l-.302-1.066-.661.186.307 1.085a29.56 29.56 0 0 1-.42.125l-.003-.004-.915.26.202.707s.486-.147.48-.138c.268-.077.4.057.462.185l.348 1.242c.019-.005.042-.012.074-.014a.4.4 0 0 1-.072.019l.489 1.737c.011.086-.002.236-.187.287.01.006-.48.138-.48.138l.091.83.864-.242c.162-.043.317-.088.475-.129l.31 1.1.661-.187-.306-1.09c.18-.049.361-.097.531-.145l.308 1.084.66-.185-.31-1.1c1.098-.38 1.799-.88 1.596-1.953-.159-.862-.661-1.129-1.337-1.104.334-.306.475-.72.257-1.275Zm-.264 2.617c.233.82-1.203 1.126-1.652 1.25l-.411-1.457c.449-.125 1.824-.653 2.063.207Zm-.887-1.975c.21.751-.99.992-1.363 1.096l-.371-1.321c.373-.104 1.514-.553 1.734.225Z"/>
  </g>
  <g clip-path="url(#c)">
    <rect width="12.178" height="12.178" x="44.502" y="17" fill="#888" rx="6.089" transform="rotate(11.854 44.502 17)"/>
    <g clip-path="url(#d)">
      <path fill="#fff" d="m48.75 26.313-2.279-2.08 1.83 4.21 3.372-3.119-2.925.989h.002Zm1.37-6.335-3.506 3.769 2.278 2.083 2.923-.99-1.695-4.863Z"/>
    </g>
  </g>
  <g clip-path="url(#e)">
    <path fill="#26A17B" d="M14.5 31.43a6.474 6.474 0 1 0-1.047-12.906A6.474 6.474 0 0 0 14.5 31.429Z"/>
    <path fill="#fff" fill-rule="evenodd" d="M14.797 25.471c-.044.006-.272.038-.782.08a17.09 17.09 0 0 1-.796.048c-1.574.059-2.766-.12-2.793-.446-.026-.326 1.122-.694 2.684-.891l.087 1.066c.103-.001.398-.008.804-.04.486-.04.729-.08.774-.088l-.087-1.066c1.571-.057 2.76.121 2.787.447.027.327-1.119.694-2.678.89Zm-.117-1.448-.078-.954 2.183-.177-.117-1.455-5.946.482.119 1.455 2.183-.177.077.954c-1.768.226-3.074.685-3.04 1.107.035.42 1.398.664 3.179.601l.248 3.058 1.578-.128-.248-3.058c1.765-.226 3.068-.685 3.034-1.106-.034-.42-1.394-.663-3.172-.602Z" clip-rule="evenodd"/>
  </g>
  <g clip-path="url(#f)">
    <path fill="#3D7AD7" d="M30.5 44.43a6.474 6.474 0 1 0-1.047-12.906A6.474 6.474 0 0 0 30.5 44.429Z"/>
    <path fill="#fff" d="M28.912 38.042a.586.586 0 1 0-.106-1.166.586.586 0 0 0 .106 1.166ZM31.167 37.838a.517.517 0 1 0-.093-1.03.517.517 0 0 0 .093 1.03Z"/>
    <path stroke="#fff" stroke-linecap="round" stroke-linejoin="round" stroke-width=".272" d="M29.637 39.161s.133.341.544.35c.41.008.506-.445.506-.445"/>
    <path stroke="#fff" stroke-linecap="round" stroke-linejoin="round" stroke-width=".272" d="m30.182 39.51.07.586m0 0c.234.122.367.173.696.074m-.696-.074c-.253.16-.38.217-.649.196m1.482.503c.765.31 1.334.115 1.725-.19m-6.057-1.084c-.68-1.786.991-2.648.991-2.648-.418-.099-1.247-1.197-.697-1.793.55-.597 1.464.322 1.464.322s1.283-.685 2.712-.246c0 0 .734-1.068 1.382-.58.648.487.03 1.717-.364 1.889 0 0 1.768.536 1.46 2.38m-5.687 2.245c.43.196.993.249 1.647-.166"/>
    <path stroke="#fff" stroke-linecap="round" stroke-linejoin="round" stroke-width=".272" d="M28.855 39.198s-2.272.57-2.533 1.835m2.68-1.34s-1.633.451-1.802 1.979m4.367-2.72s2.337.153 2.822 1.35m-2.878-.836s1.638.368 2.129 1.622"/>
  </g>
  <defs>
    <clipPath id="a">
      <path fill="#fff" d="M22 9.042 32.573 3l6.043 10.573-10.574 6.043z"/>
    </clipPath>
    <clipPath id="c">
      <rect width="12.178" height="12.178" x="44.502" y="17" fill="#fff" rx="6.089" transform="rotate(11.854 44.502 17)"/>
    </clipPath>
    <clipPath id="d">
      <path fill="#fff" d="m45.863 19.084 8.474 1.779-1.779 8.473-8.473-1.778z"/>
    </clipPath>
    <clipPath id="e">
      <path fill="#fff" d="M7 19.047 19.906 18l1.047 12.906-12.906 1.047z"/>
    </clipPath>
    <clipPath id="f">
      <path fill="#fff" d="M23 32.047 35.906 31l1.047 12.906-12.906 1.047z"/>
    </clipPath>
    <linearGradient id="b" x1="550.236" x2="1154.54" y1="-293.16" y2="764.32" gradientUnits="userSpaceOnUse">
      <stop stop-color="#F9AA4B"/>
      <stop offset="1" stop-color="#F7931A"/>
    </linearGradient>
  </defs>
</svg>
