<svg xmlns="http://www.w3.org/2000/svg" width="60" height="60" fill="none">
  <g fill="#F8BF1E" clip-path="url(#a)">
    <path d="M30.302 32.335a1.954 1.954 0 0 0 1.952-1.956c0-1.08-.874-1.956-1.952-1.956a1.954 1.954 0 0 0-1.952 1.956c0 1.08.874 1.956 1.952 1.956ZM45.868 32.335a1.954 1.954 0 0 0 1.953-1.956c0-1.08-.874-1.956-1.953-1.956a1.954 1.954 0 0 0-1.952 1.956c0 1.08.874 1.956 1.952 1.956ZM45.868 47.959a1.954 1.954 0 0 0 1.953-1.956c0-1.08-.874-1.956-1.953-1.956a1.954 1.954 0 0 0-1.952 1.956c0 1.08.874 1.956 1.952 1.956Z"/>
    <path d="M51.597 14.395c-.205-2.857-2.491-5.174-5.343-5.38a5.836 5.836 0 0 0-4.624 1.75c-.873.901-2.055 1.442-3.314 1.442h-.462c-1.284 0-2.492-.54-3.39-1.467a5.733 5.733 0 0 0-4.137-1.725c-1.618 0-3.082.67-4.135 1.725-.9.926-2.107 1.467-3.391 1.467h-.437a4.635 4.635 0 0 1-3.34-1.39c-.18-.18-.36-.36-.539-.515-2.183-1.776-5.394-1.724-7.5.155-2.544 2.239-2.647 6.151-.284 8.52.026.025.052.05.077.077.925.875 1.413 2.11 1.413 3.372v.437c0 1.287-.539 2.497-1.464 3.398a5.756 5.756 0 0 0-1.721 4.144c0 1.621.668 3.088 1.721 4.144.925.9 1.464 2.11 1.464 3.397v.592c0 1.262-.539 2.446-1.438 3.32a5.787 5.787 0 0 0-1.747 4.402c.128 3.037 2.595 5.483 5.6 5.586a5.823 5.823 0 0 0 4.418-1.802c.874-.901 2.056-1.467 3.314-1.467h.488c1.26 0 2.44.54 3.314 1.467a5.824 5.824 0 0 0 4.65 1.776c2.851-.206 5.163-2.523 5.369-5.406.23-3.423-2.44-6.254-5.806-6.254a5.801 5.801 0 0 0-4.11 1.699c-.9.9-2.106 1.441-3.365 1.441h-.54a4.716 4.716 0 0 1-3.39-1.416l-.052-.051c-.925-.901-1.464-2.11-1.464-3.398v-.515c0-1.286.54-2.496 1.464-3.397a5.757 5.757 0 0 0 1.721-4.144 5.862 5.862 0 0 0-1.72-4.144c-.926-.901-1.465-2.11-1.465-3.398v-.463c0-1.287.54-2.497 1.438-3.398l.052-.051.051-.052c.9-.9 2.107-1.441 3.391-1.441h.462c1.285 0 2.492.54 3.391 1.467a5.734 5.734 0 0 0 4.136 1.725c1.618 0 3.083-.67 4.136-1.725.899-.926 2.106-1.467 3.39-1.467h.412c1.284 0 2.492.54 3.39 1.467a5.734 5.734 0 0 0 4.137 1.725c3.339.025 6.01-2.806 5.78-6.23Z"/>
  </g>
  <defs>
    <clipPath id="a">
      <path fill="#fff" d="M9 9h43v43H9z"/>
    </clipPath>
  </defs>
</svg>
