<svg xmlns="http://www.w3.org/2000/svg" width="60" height="60" fill="none">
  <g clip-path="url(#a)">
    <path fill="#E6E6E6" d="m52.74 42.94-1.636.546c-1.231.41-2.521.62-3.82.62H21.108a12.07 12.07 0 0 1-6.527-1.918l-6.908-4.44a1.465 1.465 0 0 1 .792-2.695h34.864a6.036 6.036 0 0 1 4.711 2.263l.092.115a6.035 6.035 0 0 0 2.804 1.956l1.804.603a1.51 1.51 0 0 1 1.033 1.431v.088a1.508 1.508 0 0 1-1.032 1.431Z"/>
    <path fill="#CECECE" d="M53.367 41.223c-1.232.41-2.522.62-3.82.62H23.37c-2.315 0-4.58-.666-6.527-1.918l-6.908-4.44a1.451 1.451 0 0 1-.423-.432H8.464a1.464 1.464 0 0 0-.792 2.695l6.907 4.44a12.07 12.07 0 0 0 6.528 1.917h26.177c1.297 0 2.586-.209 3.816-.619l1.637-.545a1.508 1.508 0 0 0 1.035-1.432v-.088a1.479 1.479 0 0 0-.05-.317l-.355.119Z"/>
    <path fill="#F8C460" d="M10.018 26H7l3.018 9.053h6.035L10.018 26Z"/>
    <path fill="#FAAF42" d="M10.838 30.726 9.263 26H7l3.018 9.053h6.035l-1.51-2.264h-.842a3.017 3.017 0 0 1-2.863-2.063Z"/>
    <path fill="#F8C460" d="M10.018 38.07h4.526l-6.035 4.526H7l3.018-4.526Z"/>
    <path fill="#FAAF42" d="M10.018 38.07 7 42.596h1.509l3.017-4.526h-1.508Z"/>
    <path fill="#F8C460" d="M23.597 51.65H19.07l8.299-9.053h8.298l-12.07 9.052Z"/>
    <path fill="#FAAF42" d="m25.634 47.161 4.186-4.564H27.37l-8.299 9.052h4.527l3.017-2.263a1.328 1.328 0 0 1-.98-2.225Z"/>
    <path fill="#F8C460" d="m27.368 35.053-6.79-6.79h3.772l11.316 6.79h-8.298Z"/>
    <path fill="#FAAF42" d="m27.238 31.905-3.642-3.642h-3.018l6.79 6.79h8.298l-3.772-2.264h-2.522a3.016 3.016 0 0 1-2.134-.884Z"/>
    <path fill="#A7D0E1" d="M51.51 39.58h-5.658a1.132 1.132 0 0 1 0-2.264h2.188l.09.12a6.11 6.11 0 0 0 2.807 1.955l.573.188ZM40.948 39.579v-.754a.754.754 0 1 0-1.508 0v.754a.754.754 0 1 0 1.508 0ZM37.176 40.333a.754.754 0 0 0 .755-.754v-.754a.754.754 0 0 0-1.51 0v.754a.755.755 0 0 0 .755.754ZM34.913 39.579v-.754a.754.754 0 0 0-1.509 0v.754a.754.754 0 0 0 1.51 0ZM31.895 39.579v-.754a.754.754 0 0 0-1.508 0v.754a.754.754 0 0 0 1.508 0ZM28.878 39.579v-.754a.755.755 0 0 0-1.509 0v.754a.754.754 0 0 0 1.509 0ZM25.86 39.579v-.754a.754.754 0 1 0-1.508 0v.754a.754.754 0 1 0 1.508 0ZM22.843 39.579v-.754a.754.754 0 0 0-1.509 0v.754a.755.755 0 0 0 1.509 0ZM19.825 39.579v-.754a.754.754 0 0 0-1.509 0v.754a.754.754 0 0 0 1.51 0Z"/>
    <path fill="#fff" d="M38.685 37.316h-1.509a.755.755 0 0 1 0-1.509h1.51a.754.754 0 0 1 0 1.509Z"/>
    <path fill="#77B5FE" d="M101.39 44.934c-5.649-2.423-18.241-6.203-27.408-3.748-.648.194-2.037.646-2.5.904-8.611 4.943-17.5 3.102-26.204 1.325-9.166-1.906-18.24-3.78-27.037.42l-.092.032c-6.111 2.908-11.852.937-16.574-.484-4.445-1.357-8.334-2.552-13.982-2.65-6.018-.064-9.722 1.26-13.333 2.585-5.648 2.068-11.296 4.136-28.611-2.067-.463-.194-1.297-.259-2.315-.259v9.304c29.444 10.435 30.926-.42 44.074-.258 11.574.162 20.185 8.626 33.889 2.617 0-.032.093-.065.093-.097 6.759-3.166 14.259-1.648 21.944-.065 10.278 2.133 20.833 4.33 31.389-1.744 4.26-2.1 12.13-.646 16.666.614 3.149.84 5.741 1.809 7.408 2.584.37.162 1.481.355 2.593.517v-9.53Z"/>
    <path fill="#85BCFE" d="M73.89 49.626c-3.107-2.392-10.034-6.173-15.077-3.717-.356.162-1.12.646-1.375.905-4.737 4.913-9.627 3.103-14.414 1.293-5.043-1.907-10.034-3.75-14.873.452l-.051.033c-3.362 2.876-6.52.937-9.117-.517-2.445-1.358-4.584-2.554-7.691-2.619-3.31-.064-5.348 1.261-7.335 2.586-3.107 2.069-6.214 4.105-15.738-2.068-.255-.194-.713-.259-1.274-.291v9.34c16.197 10.44 17.012-.452 24.245-.258 6.367.13 11.104 8.597 18.642 2.586 0-.033.05-.033.05-.065 3.719-3.2 7.845-1.648 12.072-.065 5.654 2.134 11.46 4.3 17.267-1.745 2.343-2.1 6.672-.646 9.168.582a21.664 21.664 0 0 1 4.075 2.586c.203.194.814.387 1.426.517v-9.535ZM8.438 16.772c-.332-1.188.074-3.008 2.053-5.446.111-.136.296-.136.394-.012 5.669 6.93-1.439 8.936-2.447 5.458ZM45.622 12.564c-.215-.822.048-2.082 1.329-3.77.071-.094.19-.094.254-.009 3.668 4.799-.93 6.187-1.583 3.78ZM43.956 27.842c-.215-.823.048-2.082 1.329-3.77.071-.095.19-.095.254-.009 3.668 4.799-.93 6.187-1.583 3.779ZM17.067 22.842c-.215-.823.048-2.082 1.33-3.77.07-.095.19-.095.254-.009 3.668 4.799-.931 6.187-1.584 3.779ZM22.567 11.175c-.215-.822.048-2.082 1.33-3.77.07-.094.19-.094.254-.009 3.668 4.799-.931 6.187-1.584 3.78Z"/>
    <path fill="#77B5FE" d="M30.154 21.89c-.49-1.677.104-4.272 2.967-7.758.119-.178.356-.163.475-.03h-.015c8.143 9.894-2.003 12.712-3.427 7.788Z"/>
    <path fill="#9CC9FE" d="M35.45 21.326c0-.386-.594-.386-.594 0 0 .326-.134.623-.356.83a1.176 1.176 0 0 1-1.35.223c-.356-.178-.623.356-.267.534.682.341 1.498.193 2.047-.341 0 0 .52-.445.52-1.246Z"/>
  </g>
  <defs>
    <clipPath id="a">
      <rect width="50" height="50" x="5" y="4" fill="#fff" rx="10.417"/>
    </clipPath>
  </defs>
</svg>
