<svg xmlns="http://www.w3.org/2000/svg" width="60" height="60" fill="none">
  <path fill="#FFE589" d="M55.919 26.722c-.142-1.255-.468-2.417-.744-3.538-.385-1.096-.686-2.166-1.163-3.128a27.987 27.987 0 0 0-6.08-8.873c-2.116-2.116-4.165-3.437-5.862-4.374-.427-.226-.837-.435-1.213-.636-.393-.175-.77-.317-1.112-.468-.351-.142-.67-.268-.979-.393-.31-.1-.602-.176-.87-.26-.543-.15-.986-.284-1.38-.367-.392-.059-.71-.1-.97-.134-1.037-.125-1.129-.033-1.145.084-.017.108.041.234 1.012.543.242.075.543.16.903.268.36.134.786.293 1.288.477l.811.3c.284.134.585.277.912.435.326.16.677.31 1.037.494.35.209.727.426 1.129.66 1.58.954 3.495 2.267 5.47 4.324a27.38 27.38 0 0 1 5.661 8.514c.435.912.71 1.932 1.07 2.96.243 1.063.552 2.158.67 3.32.309 2.317.284 4.876-.26 7.536a24.525 24.525 0 0 1-3.144 8.095 23.443 23.443 0 0 1-6.708 7.21c-1.58 1.12-3.412 2.023-5.51 2.718-2.083.719-4.333 1.313-6.725 1.555-4.742.552-10.06-.21-14.669-2.843-4.591-2.618-8.363-6.959-10.345-12.027a26.718 26.718 0 0 1-1.84-7.861c-.217-2.668-.008-5.336.502-7.87.535-2.542 1.296-4.976 2.567-7.042 1.247-2.082 2.852-3.838 4.567-5.277 1.706-1.463 3.562-2.567 5.36-3.454 1.79-.911 3.58-1.505 5.22-1.99a31.23 31.23 0 0 1 8.028-1.137c1.923 0 2.985.159 3.002.083.008-.025-.26-.092-.761-.175-.502-.117-1.255-.15-2.233-.235-1.94-.083-4.792.017-8.196.853-1.69.452-3.53 1.012-5.394 1.907-1.865.862-3.805 1.966-5.612 3.446-1.806 1.463-3.52 3.27-4.875 5.444-.31.56-.644 1.113-.937 1.698-.251.602-.51 1.204-.77 1.815-.2.627-.4 1.254-.602 1.881-.184.636-.326 1.288-.493 1.94a29.366 29.366 0 0 0-.636 8.205 28.257 28.257 0 0 0 1.84 8.271c2.032 5.353 5.98 10.01 10.856 12.838a24.391 24.391 0 0 0 7.752 2.843c2.66.502 5.32.544 7.837.284 2.525-.25 4.9-.861 7.075-1.605 2.183-.711 4.231-1.715 5.912-2.91a24.905 24.905 0 0 0 7.176-7.72 26.216 26.216 0 0 0 3.328-8.63c.578-2.836.594-5.57.243-8.054ZM49.956 49.578c-1.681 1.74-3.488 2.626-3.413 2.777.034.142 2.04-.544 3.822-2.384 1.79-1.815 2.434-3.838 2.292-3.872-.16-.067-1.004 1.756-2.701 3.48ZM50.265 51.042c-.761.577-1.48.92-1.43 1.078.033.151.92.034 1.78-.618.862-.644 1.213-1.472 1.08-1.54-.142-.091-.661.51-1.43 1.08Z"/>
  <path fill="#FFE589" d="M44.912 12.805c2.032 2.024 3.161 4.09 3.312 4.006.134-.05-.803-2.316-2.91-4.415-2.091-2.116-4.35-3.061-4.4-2.928-.083.151 1.983 1.297 3.998 3.337Z"/>
  <g clip-path="url(#a)">
    <path fill="#fff" d="M25.09 25.635c-1.805 0-3.274 1.713-3.274 3.82 0 2.106 1.469 3.82 3.275 3.82 1.806 0 3.274-1.714 3.274-3.82s-1.468-3.82-3.274-3.82Zm.547 6.003c-.919 0-1.638-.959-1.638-2.183 0-1.224.72-2.183 1.638-2.183.918 0 1.637.959 1.637 2.183 0 1.224-.72 2.183-1.637 2.183ZM34.915 25.635c-1.806 0-3.274 1.713-3.274 3.82 0 2.106 1.468 3.82 3.274 3.82s3.274-1.714 3.274-3.82-1.468-3.82-3.274-3.82Zm-.546 6.003c-.918 0-1.637-.959-1.637-2.183 0-1.224.719-2.183 1.637-2.183.919 0 1.637.959 1.637 2.183 0 1.224-.718 2.183-1.637 2.183Z"/>
    <path fill="#fff" d="M25.637 30.546c.302 0 .546-.488.546-1.091s-.244-1.091-.546-1.091c-.3 0-.545.488-.545 1.09 0 .604.244 1.092.546 1.092ZM34.368 30.546c.301 0 .546-.488.546-1.091s-.245-1.091-.546-1.091c-.301 0-.546.488-.546 1.09 0 .604.245 1.092.546 1.092Z"/>
    <path fill="#fff" fill-rule="evenodd" d="M25.098 36.55c.273 1.656 1.282 4.365 4.904 4.365s4.631-2.708 4.912-4.322a15.89 15.89 0 0 1-4.912.796 14.456 14.456 0 0 1-4.904-.84Z" clip-rule="evenodd"/>
    <path fill="url(#b)" fill-rule="evenodd" d="M27.742 25.561a5.13 5.13 0 0 1 1.715 3.894 5.32 5.32 0 0 1-.738 2.729 31.36 31.36 0 0 0 2.3-.525 5.373 5.373 0 0 1-.47-2.204c0-2.708 1.958-4.912 4.365-4.912a4.332 4.332 0 0 1 3.852 2.605c.19-.219.363-.43.525-.63.02-.586 0-2.698-1.232-4.045a3.937 3.937 0 0 0-2.83-1.192c-1.185 2.05-3.593 3.43-7.487 4.28Z" clip-rule="evenodd"/>
    <path fill="url(#c)" fill-rule="evenodd" d="M42.931 35.207c-1.783 2.755-5.304 4.895-10.478 6.364h-.01c-.413.16-.844.273-1.282.339-.011.003-.019.011-.03.014-.93.23-1.906.44-2.929.628h13.261a3.82 3.82 0 0 0 1.468-7.345Z" clip-rule="evenodd"/>
    <path fill="url(#d)" fill-rule="evenodd" d="M24.017 36.778c-.07-.399.077-.804.386-1.065.296-.251.704-.323 1.068-.19a13.664 13.664 0 0 0 9.064 0 1.075 1.075 0 0 1 1.067.19c.309.26.456.666.387 1.065a7.405 7.405 0 0 1-1.112 2.843c3.593-1.38 6.112-3.203 7.347-5.348.567-.965.87-2.062.876-3.18 0-2.296-2.23-3.389-3.09-3.724-.25.304-.537.636-.848.968.077.367.117.742.118 1.118 0 2.708-1.959 4.912-4.366 4.912a4.178 4.178 0 0 1-3.323-1.734 34.746 34.746 0 0 1-4.018.86 4.01 4.01 0 0 1-2.482.873 3.92 3.92 0 0 1-1.64-.362c-2.744.306-5.294.648-6.543 1.38-1.491.869-2.185 1.933-2.185 3.348a3.824 3.824 0 0 0 3.81 3.82 76.815 76.815 0 0 0 8.998-.992c-2.549-1.02-3.3-3.544-3.514-4.782Z" clip-rule="evenodd"/>
    <path fill="url(#e)" fill-rule="evenodd" d="M22.136 33.057a5.188 5.188 0 0 1-1.41-3.602 5.32 5.32 0 0 1 .755-2.758c-2.71.8-4.03 2.243-4.03 4.395-.015.955.332 1.88.973 2.588a32.845 32.845 0 0 1 3.712-.623Z" clip-rule="evenodd"/>
    <path fill="url(#f)" fill-rule="evenodd" d="M22.834 25.26a3.98 3.98 0 0 1 2.257-.717c.408.001.813.066 1.2.193 4.43-.78 7.095-2.174 8.137-4.257.564-1.124.394-2.564-.464-3.954a7.413 7.413 0 0 0-5.171-3.37c.341.703.428 1.504.247 2.264-.257.892-.97 1.564-2.12 1.995-3.075 1.155-4.838 2.49-5.389 4.082-.387 1.118-.171 2.428.641 3.896.199-.044.42-.088.662-.133Z" clip-rule="evenodd"/>
  </g>
  <defs>
    <linearGradient id="b" x1="30.001" x2="30.001" y1="13.154" y2="42.552" gradientUnits="userSpaceOnUse">
      <stop stop-color="#FF9736"/>
      <stop offset="1" stop-color="#FF9F47"/>
    </linearGradient>
    <linearGradient id="c" x1="30.001" x2="30.001" y1="13.154" y2="42.552" gradientUnits="userSpaceOnUse">
      <stop stop-color="#FF9736"/>
      <stop offset="1" stop-color="#FF9F47"/>
    </linearGradient>
    <linearGradient id="d" x1="30.001" x2="30.001" y1="13.154" y2="42.552" gradientUnits="userSpaceOnUse">
      <stop stop-color="#FF9736"/>
      <stop offset="1" stop-color="#FF9F47"/>
    </linearGradient>
    <linearGradient id="e" x1="30.001" x2="30.001" y1="13.154" y2="42.552" gradientUnits="userSpaceOnUse">
      <stop stop-color="#FF9736"/>
      <stop offset="1" stop-color="#FF9F47"/>
    </linearGradient>
    <linearGradient id="f" x1="30.001" x2="30.001" y1="13.154" y2="42.552" gradientUnits="userSpaceOnUse">
      <stop stop-color="#FF9736"/>
      <stop offset="1" stop-color="#FF9F47"/>
    </linearGradient>
    <clipPath id="a">
      <path fill="#fff" d="M14.723 12.575h30.556v30.556H14.723z"/>
    </clipPath>
  </defs>
</svg>
