<svg xmlns="http://www.w3.org/2000/svg" width="70" height="70" fill="none">
  <path fill="#F86767" d="M7 45h1v22H7z"/>
  <path fill="#F86767" d="M5 49h5v14H5z"/>
  <path fill="#39CF64" d="M25 54h1v14h-1z"/>
  <path fill="#39CF64" d="M23 57h5v6h-5zM34 0h1v66h-1z"/>
  <path fill="#39CF64" d="M32 43h5v14h-5z"/>
  <path fill="#F86767" d="M43 33h1v30h-1z"/>
  <path fill="#F86767" d="M41 43h5v8.182h-5zM52 40h1v29h-1z"/>
  <path fill="#F86767" d="M50 51h5v11h-5z"/>
  <path fill="#39CF64" d="M61 44h1v22h-1z"/>
  <path fill="#39CF64" d="M59 48h5v14h-5z"/>
  <path fill="#F86767" d="M16 58h1v10h-1z"/>
  <path fill="#F86767" d="M14 62.724h5v4.69h-5z"/>
</svg>
