<svg xmlns="http://www.w3.org/2000/svg" fill="none" viewBox="0 0 60 60">
  <path fill="url(#a)" d="M48.875 31.797a.768.768 0 0 0-.766.765v5.796H42.3c-.403-8.526-10.198-13.797-17.518-9.555a11.785 11.785 0 0 0-6.049 9.555h-5.841v-5.795a.765.765 0 0 0-1.532 0v6.561a.768.768 0 0 0 .766.766h6.607a11.808 11.808 0 0 0 23.566 0h6.577a.768.768 0 0 0 .766-.766v-6.562a.768.768 0 0 0-.766-.765Zm-17.61 14.646v1.103a.766.766 0 0 1-1.53 0v-1.103h-4.15a.766.766 0 0 1 0-1.531h.872c-.037-.015.086-11.666-.053-11.569a.766.766 0 0 1 0-1.53h3.33v-1.111a.765.765 0 0 1 1.532 0v1.11c4.318-.604 6.757 4.674 3.23 7.312a4.037 4.037 0 0 1 1.685 3.277c-.031 2.694-2.342 4.32-4.915 4.042Z"/>
  <path fill="#FFDECF" d="M27.154 19.386c3.865 2.677 9.63-.366 9.502-5.168A6.16 6.16 0 0 0 30.5 8.063c-6.139.025-8.422 8.045-3.346 11.323Z"/>
  <path fill="#2196F3" d="M48.164 20.021a6.433 6.433 0 0 1-8.323.483c-.514-.48-.616-.542-1.171-.061 2.014 1.917 3.993 4.614 3.606 7.503h6.86a2.714 2.714 0 0 0 2.205-1.141c1.593-2.38-1.266-5.581-3.177-6.784Z"/>
  <path fill="#FFDECF" d="M48.637 15.367c-.227-6.495-9.603-6.496-9.83 0 .213 6.49 9.616 6.493 9.83 0Z"/>
  <path fill="#2196F3" d="M20.295 27.946c.175.603.517 1.145.987 1.562.82-.8 1.745-1.485 2.75-2.037a13.338 13.338 0 0 1 12.961-.008c.999.553 1.92 1.236 2.741 2.03.464-.414.8-.95.972-1.547.579-3.096-2.675-6.55-5.229-7.87a7.628 7.628 0 0 1-4.976 1.837 7.762 7.762 0 0 1-4.985-1.83c-2.546 1.315-5.803 4.773-5.221 7.863ZM18.733 27.946c-.414-2.876 1.589-5.597 3.598-7.503-.578-.513-.662-.4-1.194.069a6.426 6.426 0 0 1-8.307-.49c-1.907 1.2-4.762 4.407-3.17 6.783a2.715 2.715 0 0 0 2.206 1.14h6.867Z"/>
  <path fill="#FFDECF" d="M22.194 15.367c-.227-6.495-9.603-6.496-9.83 0 .212 6.49 9.616 6.493 9.83 0Z"/>
  <path fill="url(#b)" d="M34.65 35.847a2.51 2.51 0 0 0-2.512-2.504h-4.15v5.015h4.15a2.513 2.513 0 0 0 2.511-2.511Z"/>
  <path fill="url(#c)" d="M32.138 39.89h-4.15v5.022h4.15a2.511 2.511 0 1 0 0-5.022Z"/>
  <defs>
    <linearGradient id="a" x1="30.5" x2="30.5" y1="21.584" y2="50.938" gradientUnits="userSpaceOnUse">
      <stop stop-color="#FFAF37"/>
      <stop offset="1" stop-color="#FFD53F"/>
    </linearGradient>
    <linearGradient id="b" x1="31.319" x2="31.319" y1="32.129" y2="38.358" gradientUnits="userSpaceOnUse">
      <stop stop-color="#FFAF37"/>
      <stop offset="1" stop-color="#FFD53F"/>
    </linearGradient>
    <linearGradient id="c" x1="31.319" x2="31.319" y1="38.673" y2="44.912" gradientUnits="userSpaceOnUse">
      <stop stop-color="#FFAF37"/>
      <stop offset="1" stop-color="#FFD53F"/>
    </linearGradient>
  </defs>
</svg>
