<svg xmlns="http://www.w3.org/2000/svg" fill="none" viewBox="0 0 60 60">
  <path fill="#05E39C" fill-rule="evenodd" d="M16.648 37.282a3.491 3.491 0 0 1-3.63 1.187 3.504 3.504 0 0 1-2.553-2.844 3.496 3.496 0 0 1 6.183 1.657ZM17.357 37.282a3.497 3.497 0 0 0 6.183-1.657 3.496 3.496 0 0 0-6.183 1.657Z" clip-rule="evenodd"/>
  <path fill="#0ED290" fill-rule="evenodd" d="M16.648 37.282a3.49 3.49 0 0 1-3.63 1.187 3.504 3.504 0 0 1-2.553-2.844c.037-.042.071-.085.108-.128a3.498 3.498 0 0 0 5.966 1.31c.049.156.083.313.109.475ZM17.357 37.282a3.497 3.497 0 0 0 6.183-1.657 4.226 4.226 0 0 0-.108-.128 3.495 3.495 0 0 1-5.966 1.31 3.838 3.838 0 0 0-.109.475Z" clip-rule="evenodd"/>
  <path fill="#05E39C" fill-rule="evenodd" d="M16.968 33.092a4.614 4.614 0 0 1 0-8.443 4.616 4.616 0 0 1 0 8.443Z" clip-rule="evenodd"/>
  <path fill="#0ED290" fill-rule="evenodd" d="M16.968 33.092a4.614 4.614 0 0 1 0-8.443c.122.054.241.114.361.18a4.609 4.609 0 0 0-2.391 4.041c0 1.742.965 3.257 2.391 4.043-.12.065-.24.125-.361.179Z" clip-rule="evenodd"/>
  <path fill="#05E39C" fill-rule="evenodd" d="m46.416 13.183-5.059 6.957h3.245v8.699h3.627v-8.7h3.245l-5.058-6.956Z" clip-rule="evenodd"/>
  <path fill="#0ED290" fill-rule="evenodd" d="m46.416 13.183-5.059 6.957h3.245v8.699h1.814V13.183Z" clip-rule="evenodd"/>
  <path fill="#05E39C" fill-rule="evenodd" d="m29.605 22.995-5.058 6.957h3.245v8.7h3.627v-8.7h3.245l-5.059-6.957Z" clip-rule="evenodd"/>
  <path fill="#0ED290" fill-rule="evenodd" d="m29.605 22.995-5.058 6.957h3.245v8.7h1.813V22.994Z" clip-rule="evenodd"/>
  <path fill="#FAC149" fill-rule="evenodd" d="M38.385 42.932h16.06a1.51 1.51 0 0 1 1.506 1.506v1.873a1.51 1.51 0 0 1-1.506 1.506h-16.06a1.51 1.51 0 0 1-1.506-1.506v-1.873a1.51 1.51 0 0 1 1.506-1.506Z" clip-rule="evenodd"/>
  <path fill="#FEA613" fill-rule="evenodd" d="M38.385 38.048h16.06c.828 0 1.506.68 1.506 1.505v1.874a1.51 1.51 0 0 1-1.506 1.505h-16.06a1.51 1.51 0 0 1-1.506-1.505v-1.873c0-.826.678-1.506 1.506-1.506Z" clip-rule="evenodd"/>
  <path fill="#FAC149" fill-rule="evenodd" d="M38.385 33.166h16.06a1.51 1.51 0 0 1 1.506 1.506v1.87a1.51 1.51 0 0 1-1.506 1.506h-16.06a1.51 1.51 0 0 1-1.506-1.506v-1.87a1.51 1.51 0 0 1 1.506-1.506Z" clip-rule="evenodd"/>
  <path fill="#FEA613" fill-rule="evenodd" d="M25.266 42.932h16.06a1.51 1.51 0 0 1 1.506 1.506v1.873a1.51 1.51 0 0 1-1.506 1.506h-16.06a1.51 1.51 0 0 1-1.506-1.506v-1.873a1.51 1.51 0 0 1 1.506-1.506Z" clip-rule="evenodd"/>
  <path fill="#FAC149" fill-rule="evenodd" d="M25.266 38.048h16.06c.828 0 1.506.68 1.506 1.505v1.874a1.51 1.51 0 0 1-1.506 1.505h-16.06a1.51 1.51 0 0 1-1.506-1.505v-1.873c0-.826.677-1.506 1.506-1.506Z" clip-rule="evenodd"/>
  <path fill="#FEA613" fill-rule="evenodd" d="M38.385 28.281h16.06a1.51 1.51 0 0 1 1.506 1.506v1.873a1.51 1.51 0 0 1-1.506 1.506h-16.06a1.51 1.51 0 0 1-1.506-1.506v-1.873a1.51 1.51 0 0 1 1.506-1.506ZM25.266 38.048h1.577a1.51 1.51 0 0 0-1.506 1.505v1.874a1.51 1.51 0 0 0 1.506 1.505h-1.577a1.51 1.51 0 0 1-1.506-1.505v-1.873a1.51 1.51 0 0 1 1.506-1.506Z" clip-rule="evenodd"/>
  <path fill="#ED9A09" fill-rule="evenodd" d="M25.266 42.932h1.577a1.51 1.51 0 0 0-1.506 1.506v1.873a1.51 1.51 0 0 0 1.506 1.506h-1.577a1.51 1.51 0 0 1-1.506-1.506v-1.873a1.51 1.51 0 0 1 1.506-1.506Z" clip-rule="evenodd"/>
  <path fill="#FEA613" fill-rule="evenodd" d="M38.385 33.166h1.577a1.51 1.51 0 0 0-1.506 1.506v1.87a1.51 1.51 0 0 0 1.506 1.506h-1.577a1.51 1.51 0 0 1-1.506-1.506v-1.87a1.51 1.51 0 0 1 1.506-1.506Z" clip-rule="evenodd"/>
  <path fill="#ED9A09" fill-rule="evenodd" d="M38.385 28.281h1.577a1.51 1.51 0 0 0-1.506 1.506v1.873a1.51 1.51 0 0 0 1.506 1.506h-1.577a1.51 1.51 0 0 1-1.506-1.506v-1.873a1.51 1.51 0 0 1 1.506-1.506Z" clip-rule="evenodd"/>
  <path fill="#0ED290" d="M16.967 44.097a.703.703 0 0 1-.703-.703V32.45a.703.703 0 1 1 1.406 0v10.943a.703.703 0 0 1-.703.703Z"/>
  <path fill="#08C284" fill-rule="evenodd" d="M7.047 47.817c.74-1.511 2.667-2.59 4.93-2.596.683-1.847 2.673-3.182 5.027-3.182 2.351 0 4.344 1.335 5.024 3.182 2.266.006 4.194 1.085 4.93 2.596H7.048Z" clip-rule="evenodd"/>
</svg>
