<svg xmlns="http://www.w3.org/2000/svg" width="86" height="86" fill="none">
  <g fill="#fff">
    <path d="M4.314 58.228V40.976h6.66c2.748 0 5.003.739 6.765 2.216 1.77 1.477 2.654 3.484 2.654 6.02v.781c0 2.536-.885 4.542-2.654 6.02-1.762 1.476-4.017 2.215-6.766 2.215H4.314Zm4.005-2.251h2.63c1.643 0 2.943-.526 3.899-1.576.955-1.05 1.433-2.524 1.433-4.42v-.746c0-1.904-.477-3.38-1.433-4.431-.956-1.051-2.256-1.576-3.898-1.576H8.32v12.749ZM23.935 51.865V40.976h4.017v11.008c0 1.43.332 2.5.995 3.21.664.704 1.604 1.055 2.82 1.055 1.209 0 2.153-.351 2.832-1.054.68-.711 1.019-1.797 1.019-3.259v-10.96h2.903v10.89c0 2.266-.691 3.953-2.074 5.059-1.374 1.105-3.1 1.658-5.177 1.658-2.086 0-3.827-.553-5.226-1.658-1.398-1.106-2.1-2.793-2.109-5.06ZM42.917 58.228V40.976h7.203c2.244 0 4.001.364 5.273 1.09 1.28.727 1.92 1.877 1.92 3.448 0 .956-.242 1.742-.723 2.358a3.512 3.512 0 0 1-1.813 1.244v.048c.9.22 1.635.687 2.204 1.398.568.703.853 1.615.853 2.737 0 1.572-.672 2.788-2.015 3.65-1.334.852-3.104 1.279-5.308 1.279h-7.594Zm3.992-2.157h3.555c1.161 0 2.01-.256 2.547-.77.545-.513.818-1.22.818-2.12 0-.901-.273-1.604-.818-2.11-.537-.513-1.386-.77-2.547-.77H46.91v5.77Zm0-7.855h3.164c1.153 0 1.983-.221 2.488-.664.506-.45.758-1.082.758-1.895 0-.814-.252-1.434-.758-1.86-.505-.435-1.335-.652-2.488-.652H46.91v5.07ZM59.019 58.228l6.398-17.334h4.147l6.54 17.334h-4.348l-4.218-12.24c-.135-.363-.265-.73-.391-1.102a11.695 11.695 0 0 1-.285-1.042h-.13c-.071.332-.17.687-.296 1.066-.119.371-.245.73-.38 1.078l-4.194 12.24H59.02Zm2.997-4.147.735-2.263 8.827.012.734 2.25H62.017ZM78.355 58.228V40.976h4.005v17.252h-4.005Z"/>
    <path fill-rule="evenodd" d="M12.31 32.153v-.395c0-1.39.42-2.46 1.258-3.21.839-.754 1.926-1.131 3.264-1.131 1.337 0 2.427.377 3.269 1.131.842.75 1.263 1.82 1.263 3.21v.395c0 1.39-.42 2.46-1.263 3.215-.842.75-1.932 1.126-3.27 1.126-1.337 0-2.424-.375-3.263-1.126-.838-.754-1.257-1.826-1.257-3.215Zm2.079.012c0 1.018.22 1.798.658 2.341.44.54 1.034.809 1.785.809.754 0 1.35-.27 1.79-.809.44-.543.659-1.323.659-2.341v-.425c0-1.014-.22-1.79-.659-2.33-.44-.542-1.036-.814-1.79-.814-.755 0-1.352.272-1.79.815-.436.538-.653 1.315-.653 2.329v.425ZM3.64 28.745v-1.149h7.724v1.15h-2.85v7.569H6.49v-7.57H3.64Zm19.616-1.149v8.719h2.023v-2.677l.742-.797 2.6 3.474h2.556l-3.81-4.92 3.535-3.799h-1.689l-3.928 4.377v-4.377h-2.03Zm8.897 1.143v-1.143h6.719v1.144H32.154Zm0 2.508v5.068h6.79V35.17h-4.772v-2.779h4.09V31.25h-4.09v-.002h-2.018Zm8.42-3.65v8.718h1.352V31.08a6.312 6.312 0 0 0-.09-1.018h.09c.044.128.102.27.174.425.076.156.162.32.258.491l3.37 5.336h1.893v-8.719h-1.335v5.036a9.977 9.977 0 0 0 .083 1.186h-.072l-.227-.491c-.092-.2-.19-.39-.293-.57l-3.222-5.16h-1.982Zm11.89 8.718v-.845l3.808-3.557c.375-.367.69-.716.946-1.047.26-.332.39-.691.39-1.078 0-.427-.152-.775-.456-1.042-.3-.267-.714-.401-1.245-.401-.56 0-1.01.147-1.353.443-.34.295-.51.732-.51 1.311v.144h-1.652v-.144c0-.806.325-1.455.976-1.946.655-.49 1.499-.736 2.533-.736 1.022 0 1.836.223 2.443.67.61.443.916.99.916 1.64 0 .516-.154.98-.461 1.396-.307.411-.733.878-1.276 1.401L54.8 35.356h4.629v.959h-6.964Zm7.335-5.76v2.795c0 .962.305 1.727.916 2.294.61.567 1.459.85 2.545.85 1.078 0 1.924-.283 2.539-.85.614-.567.922-1.331.922-2.294v-2.796c0-.958-.308-1.72-.922-2.287-.615-.567-1.462-.85-2.54-.85-1.085 0-1.933.283-2.544.85-.61.567-.916 1.33-.916 2.287Zm2.096 4.418c-.292-.399-.438-.922-.438-1.569V30.5c0-.634.146-1.151.438-1.55.295-.404.75-.605 1.365-.605.61 0 1.064.201 1.359.605.295.399.443.916.443 1.55v2.904c0 .647-.148 1.17-.443 1.57-.295.394-.748.592-1.36.592-.614 0-1.07-.198-1.364-.593Zm9.514 1.342v-1.671h-4.15v-1.228l4.372-5.82h1.413v5.7h1.281v1.348h-1.281v1.67h-1.635Zm0-6.653v3.635h-2.904l2.832-3.635h.072Zm3.844-1.437c-.674.539-1.012 1.241-1.012 2.108 0 .854.3 1.545.898 2.071.603.527 1.398.79 2.384.79.926 0 1.67-.263 2.233-.79.058-.054.113-.11.164-.167-.11 1.14-.492 1.99-1.146 2.55-.786.675-1.84 1.013-3.162 1.013h-.131v.928h.12c1.9 0 3.375-.465 4.424-1.395 1.054-.93 1.581-2.224 1.581-3.88v-.18c0-1.346-.369-2.323-1.107-2.934-.739-.615-1.631-.922-2.677-.922-1.038 0-1.894.27-2.569.808Zm4.688 2.544c-.051-.818-.248-1.412-.592-1.784-.4-.439-.908-.658-1.527-.658-.61 0-1.086.177-1.425.533-.335.351-.503.842-.503 1.473 0 .618.17 1.1.509 1.443.34.339.812.509 1.419.509.575 0 1.078-.176 1.509-.527.323-.261.526-.59.61-.989Z" clip-rule="evenodd"/>
  </g>
</svg>
