<svg xmlns="http://www.w3.org/2000/svg" width="60" height="60" fill="none">
  <g clip-path="url(#a)">
    <path fill="#fff" d="M46.748 34.487c-.803.508-1.748.571-2.464.167-.913-.518-1.415-1.722-1.415-3.4v-5.018c0-2.423-.958-4.148-2.56-4.614-2.715-.791-4.758 2.53-5.524 3.78l-4.788 7.762v-9.487c-.054-2.185-.763-3.49-2.109-3.885-.893-.259-2.225-.155-3.52 1.826L13.64 38.844A18.927 18.927 0 0 1 11.459 30c0-10.377 8.316-18.818 18.538-18.818 10.22 0 18.534 8.441 18.534 18.818.008.035.004.065.006.102.096 2.01-.556 3.609-1.789 4.389v-.004Zm5.904-4.485-.002-.105C52.592 17.26 42.453 7 29.995 7 17.504 7 7.34 17.317 7.34 30c0 12.68 10.164 23 22.655 23 5.733 0 11.205-2.18 15.404-6.133a2.113 2.113 0 0 0 .11-2.954 2.039 2.039 0 0 0-2.912-.113 18.323 18.323 0 0 1-12.6 5.018c-5.474 0-10.398-2.42-13.794-6.264l9.675-15.534v7.162c0 3.439 1.334 4.55 2.453 4.876 1.12.326 2.83.104 4.625-2.813 1.913-3.094 3.881-6.32 5.794-9.354v4.363c0 3.216 1.288 5.788 3.533 7.053 2.024 1.144 4.569 1.04 6.64-.269 2.515-1.586 3.869-4.511 3.727-8.036h.002Z"/>
  </g>
  <defs>
    <clipPath id="a">
      <path fill="#fff" d="M7 7h46v46H7z"/>
    </clipPath>
  </defs>
</svg>
