<svg xmlns="http://www.w3.org/2000/svg" width="60" height="60" fill="none">
  <path fill="#85CAFF" fill-rule="evenodd" d="M11.758 51.354h36.484c.753 0 1.4-.343 1.823-.965.423-.623.503-1.35.226-2.05l-3.06-7.734H12.77l-3.061 7.734c-.277.7-.197 1.427.226 2.05.423.622 1.07.965 1.823.965Z" clip-rule="evenodd"/>
  <path fill="#1176E8" fill-rule="evenodd" d="M11.758 51.353h36.484c.753 0 1.4-.342 1.823-.964.423-.623.503-1.35.226-2.05H9.71c-.277.7-.197 1.427.226 2.05.423.622 1.07.964 1.823.964Z" clip-rule="evenodd"/>
  <path fill="#2A92FA" fill-rule="evenodd" d="M11.758 51.353h34.601c.753 0 1.4-.342 1.823-.964.423-.623.503-1.35.226-2.05h-38.7c-.276.7-.196 1.427.227 2.05.423.622 1.07.964 1.823.964Z" clip-rule="evenodd"/>
  <path fill="#CFE8FF" fill-rule="evenodd" d="M23.203 48.339h13.594l-1.634-2.553H24.837l-1.634 2.553Z" clip-rule="evenodd"/>
  <path fill="#B6DBFF" fill-rule="evenodd" d="M14.251 19.509h31.497c.815 0 1.482.667 1.482 1.482v19.614H12.77V20.99c0-.815.666-1.482 1.481-1.482Z" clip-rule="evenodd"/>
  <path fill="#E3F1FF" fill-rule="evenodd" d="M14.251 19.509h29.614c.815 0 1.482.667 1.482 1.482v19.614H12.77V20.99c0-.815.667-1.482 1.482-1.482Z" clip-rule="evenodd"/>
  <path fill="#4EB1FC" fill-rule="evenodd" d="m50.291 48.339-3.06-7.734h-1.883l3.06 7.734h1.883Z" clip-rule="evenodd"/>
  <path fill="#0062D9" fill-rule="evenodd" d="M23.203 48.339h13.594l-.073.232c-.16.513-.617.849-1.155.849H24.43c-.538 0-.994-.336-1.155-.849l-.073-.232Z" clip-rule="evenodd"/>
  <path fill="#F3F3FF" fill-rule="evenodd" d="M14.91 43.724a.602.602 0 0 1 0-1.203h1.405a.602.602 0 0 1 0 1.203H14.91Zm-1.064 2.701a.602.602 0 0 1 0-1.203h1.504a.602.602 0 1 1 0 1.203h-1.504Zm30.803 0a.602.602 0 0 1 0-1.203h1.504a.602.602 0 1 1 0 1.203h-1.504Zm-5.134 0a.602.602 0 0 1 0-1.203h1.504a.602.602 0 1 1 0 1.203h-1.504Zm-20.535 0a.602.602 0 0 1 0-1.203h1.503a.602.602 0 1 1 0 1.203H18.98Zm24.704-2.7a.602.602 0 0 1 0-1.204h1.405a.602.602 0 0 1 0 1.203h-1.405Zm-4.796 0a.602.602 0 0 1 0-1.204h1.405a.602.602 0 0 1 0 1.203h-1.405Zm-4.795 0a.602.602 0 0 1 0-1.204h1.404a.602.602 0 0 1 0 1.203h-1.404Zm-4.796 0a.602.602 0 0 1 0-1.204h1.405a.602.602 0 0 1 0 1.203h-1.405Zm-4.796 0a.602.602 0 0 1 0-1.204h1.405a.602.602 0 0 1 0 1.203h-1.405Zm-4.796 0a.602.602 0 0 1 0-1.204h1.405a.602.602 0 0 1 0 1.203h-1.405Z" clip-rule="evenodd"/>
  <path fill="#FDB0A0" d="M35.94 9.214H24.06a1.946 1.946 0 0 0-1.947 1.946v23.894c0 1.075.872 1.946 1.946 1.946h11.88a1.946 1.946 0 0 0 1.947-1.946V11.16a1.946 1.946 0 0 0-1.946-1.946Z"/>
  <path fill="#FFCEC0" d="M24.06 9.214h10.348c1.074 0 1.946.872 1.946 1.946v23.894A1.947 1.947 0 0 1 34.408 37H24.059a1.947 1.947 0 0 1-1.946-1.946V11.16c0-1.074.872-1.946 1.946-1.946Z"/>
  <path fill="#EA806F" fill-rule="evenodd" d="m25.395 9.214.74 1.282a.833.833 0 0 0 .739.427h6.253a.833.833 0 0 0 .739-.427l.74-1.282h-9.211Z" clip-rule="evenodd"/>
  <path fill="#F29988" fill-rule="evenodd" d="M27.825 10.923h5.302a.833.833 0 0 0 .74-.427l.74-1.282h-8.261l.74 1.282a.833.833 0 0 0 .739.427ZM29.328 34.645a.746.746 0 0 1 0-1.492h1.344a.746.746 0 0 1 0 1.492h-1.344Z" clip-rule="evenodd"/>
  <path fill="#AF5544" d="m25.358 23.954-.684-.514a.155.155 0 0 1-.065-.114.21.21 0 0 1 .024-.13c0-.005.014-.022.04-.049l.506-.407-.644-.033a.135.135 0 0 0-.04-.008c-.006-.005-.011-.008-.017-.008a.173.173 0 0 1-.106-.081.23.23 0 0 1-.016-.147l.269-.815c.01-.043.04-.076.09-.097a.19.19 0 0 1 .13-.017c.01 0 .032.011.065.033l.538.342-.163-.61a.135.135 0 0 1-.009-.042v-.024c0-.044.017-.084.05-.122a.18.18 0 0 1 .13-.057h.855c.049 0 .09.019.122.057a.171.171 0 0 1 .057.122v.024c0 .011-.002.025-.008.041l-.171.62.538-.351c.032-.022.054-.033.065-.033a.184.184 0 0 1 .13.017c.049.021.079.054.09.097l.268.815a.23.23 0 0 1-.016.146.146.146 0 0 1-.098.082.062.062 0 0 0-.024.008.246.246 0 0 0-.04.008l-.644.033.505.407c.027.027.04.044.04.049a.182.182 0 0 1 .033.13.148.148 0 0 1-.073.114l-.684.514a.244.244 0 0 1-.139.024.183.183 0 0 1-.114-.073.096.096 0 0 0-.016-.025.053.053 0 0 0-.025-.024l-.228-.603-.228.603a.094.094 0 0 0-.016.024l-.025.025c-.021.038-.06.062-.114.073a.243.243 0 0 1-.138-.024Zm3.62 0-.685-.514a.155.155 0 0 1-.065-.114.21.21 0 0 1 .024-.13c0-.005.014-.022.041-.049l.505-.407-.643-.033a.135.135 0 0 0-.041-.008c-.006-.005-.011-.008-.016-.008a.173.173 0 0 1-.106-.081.23.23 0 0 1-.017-.147l.27-.815c.01-.043.04-.076.089-.097a.19.19 0 0 1 .13-.017c.011 0 .033.011.065.033l.538.342-.163-.61a.135.135 0 0 1-.008-.042v-.024a.18.18 0 0 1 .18-.18h.854c.05 0 .09.02.122.058a.171.171 0 0 1 .058.122v.024c0 .011-.003.025-.009.041l-.17.62.537-.351c.032-.022.054-.033.065-.033a.184.184 0 0 1 .13.017c.05.021.08.054.09.097l.269.815a.23.23 0 0 1-.016.146.146.146 0 0 1-.098.082.061.061 0 0 0-.025.008.247.247 0 0 0-.04.008l-.644.033.505.407c.027.027.04.044.04.049a.182.182 0 0 1 .034.13.148.148 0 0 1-.074.114l-.684.514a.243.243 0 0 1-.139.024.184.184 0 0 1-.114-.073.09.09 0 0 0-.016-.025.053.053 0 0 0-.024-.024l-.228-.603-.228.603a.092.092 0 0 0-.017.024l-.024.025c-.022.038-.06.062-.114.073a.244.244 0 0 1-.139-.024Zm3.619 0-.684-.514a.154.154 0 0 1-.066-.114.21.21 0 0 1 .025-.13c0-.005.013-.022.04-.049l.505-.407-.643-.033a.135.135 0 0 0-.04-.008c-.006-.005-.012-.008-.017-.008a.173.173 0 0 1-.106-.081.23.23 0 0 1-.016-.147l.269-.815c.01-.043.04-.076.09-.097a.19.19 0 0 1 .13-.017c.01 0 .032.011.065.033l.537.342-.163-.61a.132.132 0 0 1-.008-.042v-.024c0-.044.017-.084.05-.122a.18.18 0 0 1 .13-.057h.855c.049 0 .09.019.122.057a.171.171 0 0 1 .057.122v.024c0 .011-.003.025-.008.041l-.171.62.537-.351c.033-.022.055-.033.066-.033a.184.184 0 0 1 .13.017c.049.021.078.054.09.097l.268.815a.23.23 0 0 1-.016.146.146.146 0 0 1-.098.082.062.062 0 0 0-.024.008.246.246 0 0 0-.041.008l-.644.033.506.407c.027.027.04.044.04.049a.182.182 0 0 1 .033.13.148.148 0 0 1-.073.114l-.685.514a.244.244 0 0 1-.138.024.184.184 0 0 1-.114-.073.093.093 0 0 0-.017-.025.053.053 0 0 0-.024-.024l-.228-.603-.228.603a.097.097 0 0 0-.016.024l-.025.025c-.021.038-.06.062-.114.073a.244.244 0 0 1-.138-.024Z"/>
</svg>
