<svg xmlns="http://www.w3.org/2000/svg" width="60" height="60" fill="none">
  <path fill="#419AE8" d="M51.43 28.628c-.558 6.285-3.88 11.765-8.74 15.223-3.644-1.004-11.33-.433-12.607-1.524-1.19-1.005-2.182 2.727-1.612 5.33-10.04-.954-18.012-8.975-18.905-19.029a20.632 20.632 0 0 1 1.848-6.93c3.322-7.202 10.624-12.21 19.09-12.21 8.455 0 15.757 5.008 19.08 12.21a20.62 20.62 0 0 1 1.846 6.93Z"/>
  <path fill="#3376BF" d="M51.518 30.5a20.969 20.969 0 0 1-6.682 15.372A20.963 20.963 0 0 1 26.86 51.19C16.98 49.48 9.48 40.864 9.48 30.5c0-.632.025-1.264.087-1.872.893 10.054 8.864 18.075 18.905 19.03.67.06 1.351.098 2.033.098 4.55 0 8.752-1.438 12.186-3.905 4.86-3.458 8.182-8.938 8.74-15.223.062.608.087 1.24.087 1.872Z"/>
  <path fill="#69C3FA" d="M49.584 21.699c-.88 1.834-2.566 3.557-5.07 4.995-.422.248-.856.484-1.315.695-2.814 1.363-6.124 2.206-9.557 2.516h-.013c-5.541.508-11.393-.347-15.93-2.578-.421-.186-.818-.41-1.215-.633-2.504-1.438-4.19-3.16-5.07-4.995a21.03 21.03 0 0 1 9.484-9.893 20.896 20.896 0 0 1 9.607-2.318c.31 0 .62.012.93.025.297.012.582.024.868.062.037-.013.086 0 .124.012.21.012.42.025.632.062.434.05.868.112 1.289.198.236.038.483.087.719.136.062.013.124.038.199.05.26.062.52.124.78.199.31.086.62.173.93.272l.335.112c.248.087.496.174.731.273.05.012.087.024.124.05.322.123.645.26.955.396.582.26 1.152.545 1.71.867.285.162.57.323.843.51.21.135.434.272.645.42.47.323.942.67 1.388 1.03.26.21.508.42.744.644.149.124.298.26.434.397.198.173.384.359.558.545.186.186.372.384.545.57a20.522 20.522 0 0 1 3.596 5.38Z"/>
  <path fill="#6FD450" d="M33.63 29.905c-5.096 3.012-2.021 1.81-4.6 3.31-2.566 1.487-4.24 2.963-2.9 4.983 1.339 2.009 1.562 4.129 0 2.455-1.562-1.673-6.372.558-7.6-1.45-1.239-2.009-.681-4.922-1.462-8.69-.285-1.39-.013-2.356.632-3.186 4.537 2.23 10.388 3.086 15.93 2.578Z"/>
  <path fill="#7DEA5D" d="M41.997 20.149c1.128 2.293-3.236 6.756-8.355 9.756h-.013c-5.541.508-11.393-.347-15.93-2.578 1.079-1.414 3.186-2.455 5.294-4.6 2.962-3 1.747-2.243-.273-4.524a9.358 9.358 0 0 1-.843-1.079c-1.661-2.442-1.971-3.062-1.562-4.116.124-.334.322-.706.583-1.202a20.895 20.895 0 0 1 9.607-2.318c.31 0 .62.012.93.025.297.012.582.024.868.062.037-.013.086 0 .124.012.21.012.42.025.632.062.434.05.867.112 1.289.198.236.038.483.087.719.136.062.013.124.038.198.05.26.062.521.124.781.199.31.086.62.173.93.272l.335.112c.248.087.496.174.731.273.05.012.087.024.124.05.322.123.645.26.955.396.582.26 1.152.545 1.71.867.285.162.57.323.843.51.21.135.434.272.645.42.47.323.942.67 1.388 1.03.26.21.508.42.744.644.149.124.298.26.434.397.198.173.384.359.558.545.186.186.372.384.545.57-1.624.757-4.165 1.029-5.938 1.277-1.4.186-2.318.36-1.958.732 1.339 1.363 2.79-.484 3.905 1.822Z"/>
  <path fill="#AEB2F4" d="M45.988 16.318c-1.624.757-4.165 1.029-5.938 1.277-1.115-.868-2.17-1.748-3.223-2.083-2.59-.83-3.087 1.042-6.335 2.814-2.008 1.104-5.454.496-7.773-.123a9.354 9.354 0 0 1-.842-1.08c-1.662-2.441-1.972-3.061-1.562-4.115.123-.334.322-.706.582-1.202a20.895 20.895 0 0 1 9.608-2.318c5.008 0 9.607 1.76 13.202 4.673a20.903 20.903 0 0 1 2.281 2.157Z"/>
  <path fill="#7DEA5D" d="M30.499 37.524c-1.894-1.248 3.23-.223 4.683 1.342 1.454 1.565.783 3.13-1.23 1.9-2.012-1.23-2.435-2.571-3.453-3.242Z"/>
  <path fill="#6FD450" d="M42.691 43.851a20.79 20.79 0 0 1-12.186 3.905c-.681 0-1.363-.037-2.033-.099-.57-2.603.422-6.335 1.612-5.33 1.277 1.09 8.963.52 12.607 1.524Z"/>
  <path fill="#66B94B" d="M44.837 45.872A20.962 20.962 0 0 1 26.86 51.19c.496-1.09 1.984-1.773 1.612-3.52v-.013c.67.062 1.351.1 2.033.1 4.55 0 8.752-1.439 12.186-3.906.484.137.905.298 1.215.496.52.322.818.856.93 1.525Z"/>
  <path fill="#D7DAFF" d="M43.707 14.161a5.789 5.789 0 0 1-1.14.57c-5.48 2.034-1.798-.124-6.385-.88-4.574-.744-3.124.645-7.983 3.112-3.15 1.611-6.372-1.054-7.885-3.955.124-.334.323-.706.583-1.202a20.896 20.896 0 0 1 9.608-2.318c5.008 0 9.607 1.76 13.202 4.673Z"/>
  <path fill="#6FD450" d="M15.463 33.209c.23-.219 1.613 4.025.698 3.745-.914-.28-1.725-2.766-.698-3.745ZM13.008 31.679c-.008-.252 2.388-.753 1.913.04-.474.793-1.878 1.088-1.913-.04Z"/>
  <path fill="#4C6479" d="M50.514 36.946a20.267 20.267 0 0 1-1.202 2.938c.099 2.926-.707 5.356-2.393 7.03-1.686 1.685-4.116 2.503-7.053 2.404-1.277-.037-2.654-.26-4.104-.645-10.19-2.727-20.702-13.24-23.442-23.442-.384-1.45-.595-2.826-.632-4.103-.1-2.938.706-5.368 2.392-7.041 1.686-1.686 4.116-2.504 7.066-2.405.075-.025.15-.062.223-.1.137-.061.261-.136.397-.198.347-.149.695-.297 1.054-.434.074-.037.136-.062.21-.099.348-.124.72-.26 1.067-.36-4.661-.904-8.554-.036-11.108 2.505-2.529 2.529-3.409 6.421-2.504 11.07.1.508.223 1.029.36 1.562 1.425 5.33 4.884 10.76 9.334 15.199 4.438 4.437 9.856 7.909 15.186 9.334.521.136 1.03.26 1.538.347 4.66.905 8.553.038 11.107-2.504 2.529-2.529 3.409-6.421 2.504-11.058Z"/>
  <path fill="#4C6479" d="M49.175 20.88c.15.273.286.546.41.819.322.681.607 1.388.843 2.12 2.145 2.007 3.297 4.3 3.297 6.681 0 2.343-1.116 4.587-3.186 6.57-.025.038-.062.063-.1.1l-.011.012c-.93.88-2.058 1.698-3.347 2.442-5.926 3.422-14.257 4.624-21.88 3.607a34.066 34.066 0 0 1-3.013-.532c-3.013-.645-5.84-1.674-8.269-3.075-1.301-.744-2.43-1.574-3.36-2.442-2.131-2.008-3.284-4.314-3.284-6.682 0-2.343 1.115-4.587 3.185-6.57-.123-.632-.21-1.24-.247-1.835-2.901 2.43-4.463 5.33-4.463 8.405 0 3.595 2.145 6.967 6.062 9.62.421.297.868.57 1.339.843 3.272 1.884 7.252 3.124 11.467 3.72 1.028.16 2.082.26 3.136.334.918.061 1.835.086 2.752.086 6.273 0 12.558-1.388 17.343-4.14.471-.273.918-.546 1.339-.856.037-.024.087-.062.124-.086a19.88 19.88 0 0 0 1.475-1.116c2.913-2.43 4.463-5.33 4.463-8.405 0-3.607-2.145-6.98-6.075-9.62Zm-37.487.087v.161c.037-.087.087-.161.124-.248l-.124.087Z"/>
  <path fill="#4C6479" d="M48.01 12.996c-2.554-2.541-6.447-3.41-11.095-2.504.025 0 .037.012.062.012l.335.112c.086.024.16.062.235.087.075.024.149.062.223.086.012 0 .025 0 .037.013.174.062.347.136.534.21.26.1.52.211.78.323.025.012.038.025.063.025.037.024.086.037.123.062l.558.26c2.938-.1 5.368.719 7.054 2.405 1.661 1.649 2.467 4.029 2.393 6.892v.174c-.038 1.277-.248 2.628-.633 4.078-1.76 6.595-6.793 13.327-12.88 18-.83.633-1.686 1.24-2.553 1.785-2.592 1.674-5.319 2.939-8.009 3.657-1.45.385-2.814.608-4.09.645-2.951.1-5.381-.719-7.067-2.405-1.661-1.649-2.467-4.016-2.392-6.88a15.368 15.368 0 0 1-1.476-1.128c-.347 3.781.608 6.93 2.777 9.1 2.554 2.54 6.447 3.408 11.095 2.503.509-.087 1.03-.21 1.55-.347 3.657-.98 7.351-2.913 10.748-5.467.83-.632 1.636-1.29 2.43-1.996a35.783 35.783 0 0 0 2.008-1.871c4.45-4.451 7.909-9.868 9.334-15.199.137-.533.26-1.054.36-1.562.013-.05.013-.087.025-.136.124-.632.21-1.24.248-1.835.347-3.78-.62-6.942-2.777-9.1ZM10.485 36.959c-.012.037-.012.086-.025.124.025.037.062.062.1.099l-.075-.223Z"/>
  <path fill="#354F66" d="M20.334 23a.42.42 0 0 1-.311-.114.552.552 0 0 1-.135-.249l-1.037-6.624v-.041a.21.21 0 0 1 .062-.156.196.196 0 0 1 .156-.073h1.607c.214 0 .332.086.352.26l.508 3.483.591-1.846a.584.584 0 0 1 .094-.186c.048-.07.13-.104.248-.104h.902c.118 0 .2.034.249.104.048.069.083.13.104.186l.58 1.835.519-3.473c.02-.173.134-.259.342-.259h1.607c.062 0 .114.024.155.073a.196.196 0 0 1 .073.155v.02c0 .008-.004.015-.01.022l-1.037 6.624a.376.376 0 0 1-.135.249.42.42 0 0 1-.311.114h-1.234c-.124 0-.218-.031-.28-.093a.7.7 0 0 1-.124-.177l-.944-2.55-.953 2.55a.462.462 0 0 1-.125.177c-.062.062-.155.093-.28.093h-1.233Zm7.866 0a.276.276 0 0 1-.187-.073.269.269 0 0 1-.083-.197v-6.717c0-.076.028-.139.083-.187a.258.258 0 0 1 .187-.083h5.08a.27.27 0 0 1 .197.083c.055.048.083.11.083.187v1.223c0 .069-.028.131-.083.186a.27.27 0 0 1-.197.084h-3.204v1.026h2.976a.27.27 0 0 1 .197.083c.055.048.083.11.083.186v1.12a.27.27 0 0 1-.083.197.29.29 0 0 1-.197.073h-2.976v1.047h3.287a.27.27 0 0 1 .197.082.27.27 0 0 1 .083.197v1.213a.269.269 0 0 1-.083.197.29.29 0 0 1-.197.073H28.2Zm6.773 0a.276.276 0 0 1-.187-.073.269.269 0 0 1-.083-.197v-6.717c0-.076.028-.139.083-.187a.258.258 0 0 1 .187-.083h3.307c.629 0 1.144.083 1.545.249.4.166.698.404.891.715.194.311.29.695.29 1.15 0 .236-.048.447-.145.633-.09.18-.2.332-.331.457a1.591 1.591 0 0 1-.373.259c.269.117.504.318.704.6.2.277.301.595.301.955 0 .483-.11.891-.332 1.223-.214.332-.528.584-.943.757-.408.173-.909.259-1.503.259h-3.411Zm1.96-1.565h1.212c.235 0 .408-.07.519-.208a.77.77 0 0 0 .166-.477.677.677 0 0 0-.177-.466c-.117-.138-.287-.207-.508-.207h-1.213v1.358Zm0-2.883h1.109c.22 0 .383-.062.487-.186a.66.66 0 0 0 .155-.436.66.66 0 0 0-.155-.435c-.104-.124-.266-.187-.487-.187h-1.11v1.244Zm-12.11 14.552c-.574 0-1.064-.07-1.472-.208-.4-.138-.73-.31-.985-.518a2.163 2.163 0 0 1-.55-.684 1.685 1.685 0 0 1-.186-.674.21.21 0 0 1 .062-.156.196.196 0 0 1 .156-.072h1.72c.09 0 .16.017.208.052a.416.416 0 0 1 .135.134.732.732 0 0 0 .197.218.915.915 0 0 0 .3.124c.118.021.26.032.425.032.298 0 .522-.066.674-.197a.695.695 0 0 0 .228-.54c0-.22-.076-.38-.228-.476-.152-.104-.37-.156-.653-.156h-1.223a.269.269 0 0 1-.197-.083.276.276 0 0 1-.073-.186v-.716c0-.096.018-.176.052-.238a.396.396 0 0 1 .135-.145l1.565-1.11h-2.799a.269.269 0 0 1-.197-.082.276.276 0 0 1-.072-.187v-1.223c0-.076.024-.139.072-.187a.269.269 0 0 1 .197-.083h5.039c.076 0 .138.028.186.083.055.048.083.11.083.187v1.098c0 .09-.017.166-.052.229a.43.43 0 0 1-.124.145l-1.4 1.14.042.02c.366.07.698.187.995.353.297.16.532.384.705.674.173.29.26.657.26 1.1 0 .47-.142.88-.426 1.233-.276.345-.656.615-1.14.808-.477.194-1.03.29-1.659.29Zm4.37-.104a.29.29 0 0 1-.196-.073.29.29 0 0 1-.073-.197v-1.555a.29.29 0 0 1 .073-.197.269.269 0 0 1 .197-.083h1.555a.27.27 0 0 1 .197.083.27.27 0 0 1 .083.197v1.555a.269.269 0 0 1-.083.197.29.29 0 0 1-.197.073h-1.555Zm5.899.104c-.511 0-.957-.07-1.337-.208a2.718 2.718 0 0 1-.954-.57 2.583 2.583 0 0 1-.58-.85 3.209 3.209 0 0 1-.24-1.068 14.429 14.429 0 0 1-.03-.663v-.767c.007-.263.017-.491.03-.685.022-.38.101-.729.24-1.047a2.46 2.46 0 0 1 .611-.84 2.72 2.72 0 0 1 .954-.56c.373-.137.808-.207 1.306-.207.49 0 .923.07 1.296.208.38.131.698.318.954.56.262.235.463.514.601.84.145.317.232.666.26 1.046.013.194.02.422.02.685v.767c0 .255-.007.477-.02.663-.029.38-.111.736-.25 1.068a2.39 2.39 0 0 1-.58.85 2.718 2.718 0 0 1-.954.57c-.38.139-.822.208-1.327.208Zm0-1.773c.276 0 .477-.09.601-.27.125-.18.19-.414.197-.705.014-.2.021-.418.021-.653v-.705c0-.242-.007-.456-.02-.642-.008-.277-.073-.505-.198-.685-.117-.186-.318-.283-.601-.29-.283.007-.484.104-.601.29-.118.18-.183.408-.197.685l-.021.642v.705l.02.653c.015.29.08.526.198.705.124.18.325.27.601.27Z"/>
</svg>
